<?xml version="1.0" standalone="no"?>
<!DOCTYPE svg PUBLIC "-//W3C//DTD SVG 1.1//EN" "http://www.w3.org/Graphics/SVG/1.1/DTD/svg11.dtd" >
<!--
2013-9-30: Created.
-->
<svg>
<metadata>
Created by iconfont
</metadata>
<defs>

<font id="iconfont" horiz-adv-x="1024" >
  <font-face
    font-family="iconfont"
    font-weight="500"
    font-stretch="normal"
    units-per-em="1024"
    ascent="896"
    descent="-128"
  />
    <missing-glyph />
    
    <glyph glyph-name="delete1" unicode="&#58956;" d="M608 148.016c0-8.848 7.152-16 16-16 8.832 0 16 7.152 16 16l0 320c0 8.832-7.168 16-16 16-8.848 0-16-7.168-16-16l0-320zM896 628.016l-208 0 0 48c0 12.352-4.8 23.488-12.448 32-8.8 9.744-21.392 16-35.552 16l-224 0c-14.16 0-26.752-6.256-35.552-16-7.664-8.512-12.464-19.648-12.464-32l0-48-207.984 0c-8.848 0-16-7.152-16-16 0-8.832 7.168-16 16-16l80 0 0-544.064c0-53.008 26.992-80 80-80l416 0c52.992 0 80 26.992 80 80l0 544.064 80 0c8.816 0 16 7.152 16 16s-7.184 16-16 16zM400 660.016c0 17.68 14.32 32 32 32l192 0c17.664 0 32-14.32 32-32l0-32-256 0 0 32zM784 52.016c0-35.344-12.672-48-48-48l-416 0c-35.344 0-48 12.656-48 48l0 544 512 0 0-544zM416 148.016c0-8.848 7.168-16 16-16s16 7.152 16 16l0 320c0 8.832-7.168 16-16 16s-16-7.168-16-16l0-320z"  horiz-adv-x="1024" />

    
    <glyph glyph-name="shanchu1" unicode="&#58927;" d="M854.528 668.608l-167.04 0C684.48 759.296 610.176 832 518.72 832c-91.52 0-165.824-72.704-168.768-163.392l-180.48 0c-24.768 0-44.8-20.032-44.8-44.8L124.672 604.8c0-24.704 20.032-44.8 44.8-44.8l14.528 0 0-459.776c0-90.688 61.44-164.224 137.152-164.224l386.24 0c75.648 0 137.088 73.536 137.088 164.224L844.48 560l10.048 0c24.768 0 44.8 20.032 44.8 44.8L899.328 623.808C899.328 648.512 879.232 668.608 854.528 668.608zM518.72 726.784c33.28 0 60.608-25.6 63.488-58.176L455.232 668.608C458.048 701.184 485.376 726.784 518.72 726.784zM737.024 557.12l0-462.144c0-26.88-20.032-48.768-44.8-48.768L336.256 46.208c-24.768 0-44.736 21.888-44.736 48.768L291.52 557.12c0 0.96 0.064 1.92 0.128 2.88l445.248 0C736.896 559.04 737.024 558.08 737.024 557.12zM381.056 164.928c19.776 0 35.84 16 35.84 35.776L416.896 405.568c0 19.84-16.064 35.84-35.84 35.84-19.84 0-35.904-16-35.904-35.84l0-204.864C345.216 180.928 361.28 164.928 381.056 164.928zM511.104 164.928c19.776 0 35.776 16 35.776 35.776L546.88 405.568c0 19.84-16 35.84-35.776 35.84-19.84 0-35.904-16-35.904-35.84l0-204.864C475.264 180.928 491.328 164.928 511.104 164.928zM647.616 164.928c19.84 0 35.84 16 35.84 35.776L683.456 405.568c0 19.84-16 35.84-35.84 35.84s-35.776-16-35.776-35.84l0-204.864C611.904 180.928 627.84 164.928 647.616 164.928z"  horiz-adv-x="1024" />

    
    <glyph glyph-name="wenjiandaoru" unicode="&#59042;" d="M206.08 826.24c338.88-148.352 261.76-414.592 261.76-414.592L364.16 411.648l180.608-118.976 175.104 118.976L621.76 411.648c0 0 43.136 372.096-374.016 420.032C237.312 832.896 196.48 830.464 206.08 826.24zM781.44 255.296c-3.904 11.84-19.968 21.44-35.968 21.44L559.168 276.736 544.96 267.072 530.304 276.736 164.8 276.736c-15.936 0-25.792-9.6-22.016-21.44l96.96-297.92C243.584-54.464 259.648-64 275.648-64l580.736 0c16.064 0 25.856 9.536 22.016 21.376L781.44 255.296zM837.184 462.08l-152.128 0c-16.128 0.96-28.928-11.328-38.912-29.12l143.168 0L601.856 305.664l143.616 0c13.824-0.064 26.368-3.904 37.376-10.368 10.816-6.592 20.928-15.936 26.112-31.04l73.088-224.512 0 357.12C882.048 396.864 879.104 462.08 837.184 462.08zM243.392 338.624l0-32.896 242.88 0L392.32 367.552 272.384 367.552C256.32 367.552 243.392 354.56 243.392 338.624z"  horiz-adv-x="1024" />

    
    <glyph glyph-name="bianji" unicode="&#58880;" d="M358.165868 341.375204c-0.533143-0.680499-1.066285-1.391696-1.303692-2.251274l-41.104163-150.700257c-2.400676-8.772804 0.059352-18.226107 6.550183-24.892947 4.860704-4.742001 11.261485-7.350408 18.077727-7.350408 2.252297 0 4.504594 0.267083 6.727215 0.860601l149.630902 40.808428c0.23843 0 0.357134-0.207731 0.534166-0.207731 1.718131 0 3.408633 0.62217 4.683672 1.927909l400.113747 400.054395c11.883655 11.897981 18.404162 28.109198 18.404162 45.74281 0 19.989263-8.476045 39.963177-23.324218 54.767348l-37.786605 37.844933c-14.81645 14.848173-34.822087 23.338544-54.797024 23.338544-17.631566 0-33.842783-6.520507-45.75816-18.388812L358.758362 342.767923C358.344946 342.384184 358.462626 341.820342 358.165868 341.375204M862.924953 638.80222l-39.742143-39.71349-64.428382 65.451688 39.180348 39.179324c6.193049 6.222725 18.194384 5.318122 25.308409-1.822508l37.813211-37.845956c3.943822-3.941775 6.195096-9.18622 6.195096-14.372336C867.223862 645.425058 865.710392 641.57231 862.924953 638.80222M429.322487 335.092104l288.712541 288.728914 64.459081-65.49569L494.314711 270.161279 429.322487 335.092104zM376.718409 218.029968l20.863167 76.580143 55.656601-55.657624L376.718409 218.029968zM888.265084 480.264461c-15.144932 0-27.562752-12.313443-27.620058-27.665083l0-372.98283c0-19.559475-15.885805-35.444257-35.475979-35.444257L194.220958 44.172291c-19.559475 0-35.504632 15.883759-35.504632 35.444257L158.716326 688.397778c0 19.575848 15.945157 35.474956 35.504632 35.474956l406.367171 0c15.231913 0 27.592428 12.371772 27.592428 27.606755 0 15.202237-12.360516 27.590382-27.592428 27.590382L190.013123 779.069871c-47.684022 0-86.49291-38.779212-86.49291-86.49291L103.520213 75.40769c0-47.713698 38.808888-86.47756 86.49291-86.47756l639.334083 0c47.715745 0 86.509283 38.763862 86.509283 86.47756L915.856489 452.777433C915.794068 467.951017 903.408993 480.264461 888.265084 480.264461"  horiz-adv-x="1024" />

    
    <glyph glyph-name="unie64f" unicode="&#59058;" d="M633.952 829.376l-324.064 0c-45.696 0-82.752-37.056-82.752-82.752l0-768.8c0-45.696 37.056-82.752 82.752-82.752l324.096 0c45.696 0 82.752 37.056 82.752 82.752l0 768.8c-0.032 45.696-37.056 82.752-82.752 82.752zM409.856 753.536l124.128 0 0-20.672-124.128 0 0 20.672zM471.936-72.16c-22.848 0-41.376 18.528-41.376 41.376s18.528 41.376 41.376 41.376 41.376-18.528 41.376-41.376-18.528-41.376-41.376-41.376zM701.184 46.784l-457.472 0 0 627.456 457.472 0 0-627.456z"  horiz-adv-x="1024" />

    
    <glyph glyph-name="tuandui" unicode="&#58946;" d="M774.4 153.6c0 44.8-12.8 89.6-38.4 121.6C691.2 326.4 640 352 576 352c-38.4 0-76.8 0-115.2 0-44.8 0-83.2-12.8-121.6-38.4-44.8-32-70.4-76.8-76.8-128-6.4-57.6 0-121.6-6.4-185.6 6.4 0 19.2-6.4 25.6-6.4 76.8-19.2 147.2-38.4 224-38.4 44.8 0 96 0 140.8 6.4 38.4 6.4 76.8 19.2 115.2 32 6.4 0 6.4 6.4 6.4 12.8C774.4 57.6 774.4 108.8 774.4 153.6zM358.4 364.8c12.8 6.4 19.2 6.4 32 12.8-38.4 38.4-57.6 76.8-57.6 128-44.8 0-89.6 0-134.4 0C172.8 505.6 147.2 499.2 128 492.8 57.6 467.2 0 396.8 0 320c0-51.2 0-102.4 0-160 0-6.4 0-6.4 6.4-12.8 51.2-12.8 102.4-25.6 153.6-32 19.2 0 44.8-6.4 64-6.4 0 12.8 0 25.6 0 38.4 0 19.2 0 38.4 6.4 57.6C249.6 281.6 294.4 332.8 358.4 364.8zM1024 307.2c0 25.6-6.4 57.6-19.2 83.2-38.4 76.8-96 115.2-179.2 115.2-121.6 0 0 0-121.6 0 0-51.2-19.2-96-57.6-128 6.4 0 12.8-6.4 12.8-6.4 32-12.8 64-32 89.6-57.6 38.4-44.8 57.6-96 57.6-153.6 0-12.8 0-32 0-44.8 32 6.4 57.6 6.4 89.6 12.8 38.4 6.4 83.2 19.2 121.6 38.4 6.4 0 6.4 6.4 6.4 12.8C1024 211.2 1024 262.4 1024 307.2zM518.4 358.4c83.2 0 153.6 70.4 147.2 153.6 0 83.2-70.4 147.2-147.2 147.2-83.2 0-153.6-64-153.6-147.2C371.2 428.8 435.2 358.4 518.4 358.4zM704 524.8C723.2 518.4 742.4 512 768 512c83.2 0 153.6 70.4 147.2 153.6 0 83.2-70.4 147.2-147.2 147.2-83.2 0-153.6-64-153.6-147.2C665.6 640 697.6 588.8 704 524.8zM256 512c25.6 0 57.6 6.4 76.8 19.2 6.4 51.2 32 96 70.4 121.6 0 0 0 6.4 0 6.4 0 83.2-70.4 147.2-147.2 147.2-83.2 0-153.6-64-153.6-147.2C102.4 582.4 172.8 512 256 512z"  horiz-adv-x="1024" />

    
    <glyph glyph-name="user" unicode="&#60559;" d="M914.285769 93.110857q0-68.534857-41.691429-108.251429t-110.884571-39.716571l-499.419429 0q-69.12 0-110.884571 39.716571t-41.691429 108.251429q0 30.281143 1.974857 59.172571t7.972571 62.317714 15.140571 62.025143 24.576 55.734857 35.401143 46.299429 48.859429 30.573714 63.707429 11.410286q5.12 0 23.990857-12.288t42.569143-27.428571 61.732571-27.428571 76.288-12.288 76.288 12.288 61.732571 27.428571 42.569143 27.428571 23.990857 12.288q34.889143 0 63.707429-11.410286t48.859429-30.573714 35.401143-46.299429 24.576-55.734857 15.140571-62.025143 7.972571-62.317714 1.974857-59.172571zM731.428626 603.428571q0-90.843429-64.292571-155.136t-155.136-64.292571-155.136 64.292571-64.292571 155.136 64.292571 155.136 155.136 64.292571 155.136-64.292571 64.292571-155.136z"  horiz-adv-x="1024" />

    
    <glyph glyph-name="noread" unicode="&#58920;" d="M884.364 721.091l-744.727 0c-51.433 0-93.091-41.705-93.091-93.091l0-558.545c0-51.433 41.658-93.091 93.091-93.091l744.727 0c51.433 0 93.091 41.658 93.091 93.091l0 558.545c0 51.386-41.658 93.091-93.091 93.091zM930.909 69.455c0-25.693-20.852-46.545-46.545-46.545l-744.727 0c-25.693 0-46.545 20.852-46.545 46.545l0 558.545c0 25.693 20.852 46.545 46.545 46.545l744.727 0c25.693 0 46.545-20.852 46.545-46.545l0-558.545zM313.577 264.713l-148.108-148.108c-9.076-9.076-9.076-23.831 0-32.908 9.076-9.076 23.831-9.076 32.908 0l148.108 148.108c9.076 9.076 9.076 23.831 0 32.908-9.076 9.076-23.785 9.076-32.908 0zM544.908 326.153c-18.199-18.199-47.663-18.199-65.815 0l-278.575 278.575-65.862 0 344.436-344.436c18.199-18.153 47.663-18.153 65.815 0l344.436 344.436-65.815 0-278.621-278.575zM710.423 264.713c-9.076 9.076-23.831 9.076-32.908 0-9.076-9.076-9.076-23.831 0-32.908l148.108-148.108c9.076-9.076 23.831-9.076 32.908 0 9.076 9.076 9.076 23.831 0 32.908l-148.108 148.108z"  horiz-adv-x="1024" />

    
    <glyph glyph-name="read" unicode="&#58932;" d="M978.013 544.265l-432.873 315.857c-8.844 9.309-23.599 9.681-32.908 0.838-0.093-0.093-0.14-0.233-0.233-0.372-0.093 0.093-0.14 0.279-0.279 0.372-9.309 8.844-24.064 8.471-32.908-0.838l-432.873-315.857c-8.704-9.169-8.378-23.599 0.605-32.489l0-512.14c0-51.386 41.658-93.091 93.091-93.091l744.727 0c51.433 0 93.091 41.658 93.091 93.091l0 512.14c8.983 8.89 9.309 23.319 0.559 32.489zM930.909 22.909c0-38.54-31.279-69.818-69.818-69.818l-698.182 0c-38.54 0-69.818 31.279-69.818 69.818l0 499.06 418.909 305.664 418.909-305.664 0-499.06zM479.092 302.88l-267.59 185.484-75.776 0 343.366-251.345c18.199-18.199 47.663-18.199 65.815 0l343.366 251.345-75.776 0-267.59-185.484c-18.153-18.199-47.663-18.199-65.815 0zM313.577 194.895l-148.108-148.108c-9.076-9.076-9.076-23.831 0-32.908 9.076-9.076 23.831-9.076 32.908 0l148.108 148.108c9.076 9.076 9.076 23.831 0 32.908-9.076 9.076-23.785 9.076-32.908 0zM710.423 194.895c-9.076 9.076-23.831 9.076-32.908 0-9.076-9.076-9.076-23.831 0-32.908l148.108-148.108c9.076-9.076 23.831-9.076 32.908 0 9.076 9.076 9.076 23.831 0 32.908l-148.108 148.108z"  horiz-adv-x="1024" />

    
    <glyph glyph-name="eye" unicode="&#59041;" d="M950.796288 347.398144q-86.851584 134.848512-217.700352 201.701376 34.854912-59.424768 34.854912-128.5632 0-105.70752-75.138048-180.845568t-180.845568-75.138048-180.845568 75.138048-75.138048 180.845568q0 69.138432 34.854912 128.5632-130.848768-66.852864-217.700352-201.701376 75.995136-117.13536 190.559232-186.559488t248.269824-69.424128 248.269824 69.424128 190.559232 186.559488zm-411.40224 219.414528q0 11.42784-7.999488 19.427328t-19.427328 7.999488q-71.424 0-122.563584-51.139584t-51.139584-122.563584q0-11.42784 7.999488-19.427328t19.427328-7.999488 19.427328 7.999488 7.999488 19.427328q0 49.139712 34.854912 83.994624t83.994624 34.854912q11.42784 0 19.427328 7.999488t7.999488 19.427328zm484.540416-219.414528q0-19.427328-11.42784-39.426048-79.99488-131.42016-215.129088-210.557952t-285.410304-79.137792-285.410304 79.423488-215.129088 210.272256q-11.42784 19.99872-11.42784 39.426048t11.42784 39.426048q79.99488 130.848768 215.129088 210.272256t285.410304 79.423488 285.410304-79.423488 215.129088-210.272256q11.42784-19.99872 11.42784-39.426048z"  horiz-adv-x="1024" />

    
    <glyph glyph-name="download" unicode="&#58994;" d="M512 896C229.218 896 0 666.782 0 384s229.218-512 512-512 512 229.218 512 512S794.782 896 512 896zM512-48c-238.594 0-432 193.406-432 432S273.406 816 512 816s432-193.406 432-432S750.594-48 512-48zM704 256 704 192 512 192 320 192 320 256 256 256 256 128 768 128 768 256ZM544 384 544 640 480 640 480 384 384 384 512 224 640 384Z"  horiz-adv-x="1024" />

    
    <glyph glyph-name="daochubiaoge" unicode="&#58955;" d="M161.482667 772.416 122.464 772.416 55.306667 772.416l0-82.794667 67.157333 0 39.018667 0c19.754667 0 35.776 16.021333 35.776 35.776L197.258667 736.64C197.258667 756.416 181.237333 772.416 161.482667 772.416zM161.482667 590.805333 122.464 590.805333 55.306667 590.805333l0-82.794667 67.157333 0 39.018667 0c19.754667 0 35.776 16.021333 35.776 35.776l0 11.264C197.258667 574.784 181.237333 590.805333 161.482667 590.805333zM161.482667 409.194667 122.464 409.194667 55.306667 409.194667l0-82.816 67.157333 0 39.018667 0c19.754667 0 35.776 16.064 35.776 35.797333l0 11.285333C197.258667 393.173333 181.237333 409.194667 161.482667 409.194667zM161.482667 227.605333 122.464 227.605333 55.306667 227.605333l0-82.794667 67.157333 0 39.018667 0c19.754667 0 35.776 15.978667 35.776 35.754667l0 11.242667C197.258667 211.584 181.237333 227.605333 161.482667 227.605333zM161.482667 45.973333 122.464 45.973333 55.306667 45.973333l0-82.816 67.157333 0 39.018667 0c19.754667 0 35.776 16.021333 35.776 35.776l0 11.242667C197.258667 29.952 181.237333 45.973333 161.482667 45.973333zM880.949333 896 210.229333 896C161.824 896 122.613333 856.810667 122.485333 808.426667l38.997333 0c39.573333 0 71.786667-32.192 71.786667-71.786667l0-11.242667c0-39.594667-32.213333-71.786667-71.786667-71.786667L122.464 653.610667l0-26.794667 39.018667 0c39.573333 0 71.786667-32.192 71.786667-71.765333l0-11.264c0-39.573333-32.213333-71.786667-71.786667-71.786667L122.464 472l0-26.794667 39.018667 0c39.573333 0 71.786667-32.213333 71.786667-71.765333l0-11.285333c0-39.573333-32.213333-71.744-71.786667-71.744L122.464 290.410667l0-26.837333 39.018667 0c39.573333 0 71.786667-32.192 71.786667-71.765333l0-11.242667c0-39.552-32.213333-71.765333-71.786667-71.765333L122.464 108.8l0-26.794667 39.018667 0c39.573333 0 71.786667-32.234667 71.786667-71.808l0-11.242667c0-39.552-32.213333-71.744-71.786667-71.744L129.546667-72.789333c13.418667-31.317333 44.458667-53.312 80.661333-53.312l670.72 0c48.448 0 87.744 39.296 87.744 87.765333L968.672 808.213333C968.693333 856.704 929.418667 896 880.949333 896zM839.882667 506.624 273.461333 506.624l0 82.517333 566.442667 0L839.904 506.624zM839.882667 676.032 273.461333 676.032 273.461333 758.549333l566.442667 0L839.904 676.032z"  horiz-adv-x="1024" />

    
    <glyph glyph-name="jifenguanli" unicode="&#58971;" d="M797.272141 230.664974l29.997071 8.29919 1.099893 0.299971c18.098233 5.799434 33.296748 17.498291 42.795821 34.396641 9.399082 15.798457 12.79875 35.296553 8.29919 53.894737l-13.898643 60.294112 39.396153 40.596036 1.699834 1.099893c13.098721 14.998535 20.298018 32.196856 20.298018 51.394981 0 19.198125-7.199297 37.496338-20.298018 51.09501l-40.296065 43.595743-1.399863 1.699834 14.398594 57.494385c4.39957 18.298213 1.099893 37.796309-8.29919 53.594766-9.399082 16.89835-24.697588 28.897178-42.795821 34.396641L769.574846 741.015135l-16.098428 56.594473c-5.499463 17.798262-17.798262 33.89669-34.19666 43.095791-11.198906 6.299385-23.597696 9.699053-36.396446 9.699053-5.899424 0-11.798848-0.699932-17.698272-2.199785l-59.994141-13.298701L562.99502 876.001953C549.096377 888.800703 530.698174 896 511.90001 896c-19.198125 0-37.196368-7.199297-51.09501-19.998047l-43.295772-40.596036-1.699834-1.399863-57.194415 14.198613c-5.699443 1.399863-11.398887 2.099795-17.09833 2.099795-11.898838 0-23.597696-2.999707-34.296651-8.199199l-2.499756-1.399863c-16.89835-9.199102-28.897178-25.29753-34.396641-43.095791l-17.798262-57.994336-56.094522-16.89835-1.099893 0c-18.298213-5.499463-33.296748-17.798262-42.69583-34.396641-9.499072-16.098428-12.79875-35.296553-8.29919-53.594766l13.298701-59.094229 0.599941-1.099893-39.396153-40.796016-1.699834-1.099893c-12.79875-14.198613-19.998047-32.496826-19.998047-51.694952 0-19.098135 7.199297-36.396446 19.998047-50.79504l40.496045-43.595743 1.099893-1.399863-14.398594-57.494385c-3.899619-17.498291-1.099893-35.496534 6.699346-51.394981l1.699834-2.499756c9.399082-16.89835 24.397617-28.597207 42.69583-34.396641l30.597012-9.699053L105.339713 36.283957c-6.699346-10.798945-3.599648-24.997559 7.499268-31.696905 3.999609-2.599746 8.59916-3.899619 12.998731-3.899619 2.099795 0 4.19959 0.299971 6.199395 0.799922l142.986037 33.296748 33.596719-144.685871c2.399766-10.498975 12.098818-18.098233 22.897764-18.098233 1.799824 0 3.599648 0.19998 5.399473 0.599941 6.099404 1.599844 11.098916 5.799434 14.398594 10.298994l121.088175 194.381017c11.698858-7.799238 25.49751-11.398887 39.396153-11.398887 13.898643 0 27.797285 3.599648 39.396153 11.398887l121.088175-194.381017c3.299678-4.39957 8.29919-8.59916 14.698565-10.298994 1.799824-0.399961 3.499658-0.599941 5.299482-0.599941 10.598965 0 20.298018 7.599258 22.497803 18.098233l33.596719 144.685871 143.785958-33.296748c1.999805-0.499951 3.999609-0.799922 5.999414-0.799922 4.29958 0 8.69915 1.199883 12.89874 3.899619 10.598965 6.699346 13.898643 20.797969 7.199297 31.696905L797.272141 230.664974zM762.8755 97.278l-62.293917 14.398594-14.498584-62.293917-11.398887-49.095206-69.093253 110.989161-34.896592 56.094522-54.894639-36.696416c-0.299971-0.19998-1.699834-0.599941-3.899619-0.599941-2.199785 0-3.599648 0.499951-3.899619 0.599941l-54.894639 36.696416-34.896592-56.094522-69.293233-111.289132-11.498877 49.395176-14.498584 62.393907-62.393907-14.498584-48.795235-11.398887 68.493311 109.789278 43.595743 69.893174-78.492335 24.997559-30.597012 9.699053c-4.0996 1.299873-5.399473 3.099697-6.199395 4.599551l-1.199883 2.199785c-0.599941 1.799824-0.999902 3.999609-0.599941 6.199395l14.098623 56.194512 7.699248 30.697002-19.698076 24.697588-1.099893 1.399863-1.499854 1.899814-1.699834 1.799824-39.896104 42.895811c-3.599648 4.19959-3.599648 6.699346-3.599648 7.999219 0 2.099795 0.599941 4.29958 1.699834 6.199395l1.999805 2.099795 39.396153 40.796016 31.796895 32.896787-17.798262 34.596621-11.498877 51.195-0.09999 0.499951-0.09999 0.499951c-0.399961 1.699834 0.09999 3.899619 1.299873 5.999414l0.299971 0.499951 0.299971 0.499951c1.099893 1.899814 2.299775 2.999707 3.399668 3.699639l3.299678 0.999902 56.094522 16.89835 32.696807 9.899033 9.999024 32.696807 17.698272 57.794356c0.999902 3.199688 2.899717 5.199492 3.799629 5.799434l0.09999 0 0.09999 0 0.899912 0.499951c1.899814 0.799922 3.699639 1.299873 5.199492 1.299873 0.499951 0 0.899912 0 1.299873-0.09999l0.19998-0.09999 0.19998-0.09999 57.194415-14.198613 31.396934-7.799238 24.897569 20.697979 1.699834 1.399863 1.499854 1.199883 1.399863 1.299873 42.995801 40.296065c2.199785 1.999805 4.799531 2.999707 7.699248 2.999707 2.599746 0 5.299482-0.999902 7.399277-2.799727l41.295967-40.196075 24.797578-24.097647 33.696709 7.499268 59.994141 13.298701 0.799922 0.19998 0.799922 0.19998c0.799922 0.19998 1.499854 0.299971 2.199785 0.299971 1.599844 0 3.299678-0.499951 5.099502-1.499854 1.099893-0.599941 3.199688-2.899717 4.19959-5.799434l15.798457-55.494581 9.499072-33.296748 32.996778-10.298994 58.894249-18.298213 0.09999 0 0.09999 0c3.499658-1.099893 4.899522-2.999707 5.699443-4.39957l0.499951-0.799922 0.499951-0.799922c0.999902-1.699834 1.499854-3.999609 1.099893-5.599453l-14.298604-56.994434-7.899229-31.496924 20.797969-24.997559 1.399863-1.699834 1.099893-1.299873 1.099893-1.199883 40.296065-43.595743 0.399961-0.499951 0.399961-0.399961c1.499854-1.599844 2.399766-4.0996 2.399766-6.799336 0-0.999902 0-2.799727-1.899814-5.899424l-1.899814-1.999805-39.396153-40.596036-24.297627-24.997559 7.799238-33.99668 13.898643-60.294112 0.09999-0.19998 0.09999-0.19998c0.499951-1.999805 0.09999-4.39957-0.999902-6.299385l-0.499951-0.799922-0.499951-0.799922c-0.399961-0.799922-1.599844-2.799727-5.499463-4.29958l-29.59711-8.199199-82.491944-22.797774 45.295577-72.692901 69.193243-110.989161L762.8755 97.278zM512 644.924519c-91.791036 0-166.283761-74.392735-166.283761-166.283761S420.208964 312.356996 512 312.356996c91.791036 0 166.283761 74.392735 166.283761 166.283761S603.791036 644.924519 512 644.924519zM512 376.350747c-56.394493 0-102.290011 45.895518-102.290011 102.290011 0 56.394493 45.895518 102.290011 102.290011 102.290011 56.394493 0 102.290011-45.895518 102.290011-102.290011C614.290011 422.246265 568.394493 376.350747 512 376.350747z"  horiz-adv-x="1024" />

    
    <glyph glyph-name="chexiao" unicode="&#59329;" d="M467.314777 831.696462 72.749396 430.462195l394.565381-397.037688L467.314777 285.358399c0 0 458.33987 233.70574 418.85867-349.054861 0 0 309.626873 555.443441-421.881516 664.74687L467.314777 831.696462z"  horiz-adv-x="1024" />

    
    <glyph glyph-name="xiafashuju" unicode="&#59366;" d="M755.568876 470.833671 615.562169 470.833671 615.562169 782.61972 408.435785 782.61972 408.435785 470.833671 268.429077 470.833671 511.999488 173.342186ZM854.917582 302.071036l0-98.18623c0-73.02006-24.677029-97.680716-97.697089-97.680716L266.777461 106.20409c-73.02006 0-97.698113 24.660656-97.698113 97.680716l0 98.18623L64.303027 302.071036l0-144.085606c0-95.320972 77.267804-172.606173 172.606173-172.606173l550.180578 0c95.337345 0 172.606173 77.284177 172.606173 172.606173L959.69595 302.071036 854.917582 302.071036z"  horiz-adv-x="1024" />

    
    <glyph glyph-name="custom-down" unicode="&#58919;" d="M87.347 385.297c0-235.691 191.027-426.684 426.667-426.684s426.667 190.993 426.667 426.684c0 235.639-191.027 426.667-426.667 426.667s-426.667-191.027-426.667-426.667zM906.547 385.297c0-216.457-176.094-392.55-392.533-392.55-216.474 0-392.533 176.094-392.533 392.55s176.060 392.533 392.533 392.533c216.439 0 392.533-176.077 392.533-392.533zM330.581 359.407l-24.132-24.149 207.565-207.548 207.531 207.548-24.132 24.149-166.332-166.349v414.106h-34.133v-414.106z"  horiz-adv-x="1024" />

    
    <glyph glyph-name="download1" unicode="&#58910;" d="M512 896C229.216 896 0 666.784 0 384c0-282.768 229.216-512 512-512 282.752 0 512 229.232 512 512C1024 666.784 794.752 896 512 896zM512-96C246.896-96 32 118.912 32 384 32 649.104 246.896 864 512 864c265.056 0 480-214.896 480-480C992 118.912 777.056-96 512-96zM781.632 573.632c-6.256 6.256-14.432 9.376-22.624 9.376l-116.992 0c-8.848 0-16-7.168-16-16s7.152-16 16-16l100.992 0c4.096 0 8.192-1.568 11.312-4.688s4.688-7.216 4.688-11.312l0-314c0-4.096-1.568-8.192-4.688-11.312s-7.216-4.688-11.312-4.688L280.992 205.008c-4.096 0-8.192 1.568-11.312 4.688s-4.688 7.216-4.688 11.312L264.992 535.008c0 4.096 1.568 8.192 4.688 11.312s7.216 4.688 11.312 4.688l101.008 0c8.832 0 16 7.168 16 16s-7.168 16-16 16l-117.008 0c-8.192 0-16.384-3.12-22.624-9.376-6.256-6.24-9.376-14.432-9.376-22.624l0-346c0-8.192 3.12-16.368 9.376-22.624 6.24-6.256 14.432-9.376 22.624-9.376l494 0c8.192 0 16.368 3.12 22.624 9.376s9.376 14.432 9.376 22.624L790.992 551.008C791.008 559.184 787.872 567.376 781.632 573.632zM387.552 400.816l113.136-113.12c0.176-0.192 0.432-0.24 0.624-0.4 1.344-1.232 2.848-2.336 4.576-3.04 1.968-0.816 4.032-1.232 6.128-1.232s4.16 0.416 6.112 1.232c1.984 0.816 3.76 1.984 5.232 3.472l113.088 113.104c6.256 6.256 6.256 16.384 0 22.64s-16.368 6.256-22.624 0L528 337.632 528 643.008c0 8.832-7.152 16-16 16s-16-7.168-16-16l0-305.376-85.84 85.824c-6.256 6.256-16.368 6.256-22.624 0S381.296 407.056 387.552 400.816z"  horiz-adv-x="1024" />

    
    <glyph glyph-name="iconset0103" unicode="&#58882;" d="M584.533333 196.266667c-12.8 0-21.333333 0-25.6 4.266667-4.266667 4.266667-8.533333 12.8-8.533333 21.333333 0 4.266667 0 12.8 4.266667 21.333333 0 8.533333 4.266667 17.066667 4.266667 21.333333l25.6 85.333333c4.266667 8.533333 4.266667 17.066667 4.266667 25.6 0 8.533333 0 17.066667 0 21.333333 0 17.066667-8.533333 34.133333-21.333333 42.666667-12.8 12.8-29.866667 17.066667-55.466667 17.066667-12.8 0-25.6-4.266667-42.666667-8.533333-12.8-4.266667-29.866667-8.533333-46.933333-17.066667l-8.533333-25.6c4.266667 0 8.533333 4.266667 17.066667 4.266667 8.533333 0 12.8 4.266667 21.333333 4.266667 12.8 0 21.333333-4.266667 25.6-4.266667 4.266667-4.266667 8.533333-12.8 8.533333-21.333333 0-4.266667 0-12.8-4.266667-21.333333 0-8.533333-4.266667-17.066667-4.266667-21.333333l-25.6-85.333333c-4.266667-8.533333-4.266667-17.066667-4.266667-25.6 0-8.533333 0-12.8 0-21.333333 0-17.066667 8.533333-29.866667 21.333333-42.666667 12.8-12.8 29.866667-17.066667 55.466667-17.066667 17.066667 0 29.866667 0 42.666667 4.266667 12.8 4.266667 25.6 8.533333 46.933333 17.066667l8.533333 25.6c-4.266667 0-8.533333-4.266667-17.066667-4.266667C597.333333 196.266667 588.8 196.266667 584.533333 196.266667zM524.8 840.533333C268.8 840.533333 64 635.733333 64 384c0-251.733333 204.8-456.533333 456.533333-456.533333C776.533333-72.533333 981.333333 132.266667 981.333333 384 981.333333 635.733333 776.533333 840.533333 524.8 840.533333zM524.8-34.133333c-230.4 0-418.133333 187.733333-418.133333 418.133333s187.733333 418.133333 418.133333 418.133333c230.4 0 418.133333-187.733333 418.133333-418.133333S755.2-34.133333 524.8-34.133333zM567.466667 614.4c-17.066667 0-29.866667-4.266667-42.666667-17.066667C516.266667 588.8 512 576 512 558.933333c0-12.8 4.266667-25.6 17.066667-38.4 12.8-8.533333 25.6-17.066667 42.666667-17.066667 17.066667 0 29.866667 4.266667 42.666667 17.066667s17.066667 21.333333 17.066667 38.4c0 12.8-4.266667 25.6-17.066667 38.4S584.533333 614.4 567.466667 614.4z"  horiz-adv-x="1024" />

    
    <glyph glyph-name="iconset0218" unicode="&#58998;" d="M896 192c0 149.333333-170.666667 149.333333-170.666667 362.666667 0 87.466667-53.333333 164.266667-130.133333 196.266667C597.333333 757.333333 597.333333 761.6 597.333333 768c0 46.933333-38.4 85.333333-85.333333 85.333333s-85.333333-38.4-85.333333-85.333333c0-6.4 0-10.666667 2.133333-17.066667C352 718.933333 298.666667 642.133333 298.666667 554.666667c0-213.333333-170.666667-213.333333-170.666667-362.666667 0-66.133333 106.666667-119.466667 256-140.8 0-2.133333 0-6.4 0-8.533333 0-70.4 57.6-128 128-128s128 57.6 128 128c0 2.133333 0 6.4 0 8.533333C789.333333 72.533333 896 125.866667 896 192zM512 810.666667c23.466667 0 42.666667-19.2 42.666667-42.666667s-19.2-42.666667-42.666667-42.666667-42.666667 19.2-42.666667 42.666667S488.533333 810.666667 512 810.666667zM232.533333 307.2C281.6 358.4 341.333333 422.4 341.333333 554.666667c0 70.4 44.8 132.266667 106.666667 157.866667 14.933333-19.2 38.4-29.866667 64-29.866667s49.066667 12.8 64 29.866667c61.866667-25.6 106.666667-87.466667 106.666667-157.866667 0-132.266667 59.733333-196.266667 108.8-247.466667 8.533333-10.666667 17.066667-19.2 25.6-27.733333C776.533333 241.066667 654.933333 213.333333 512 213.333333c-142.933333 0-264.533333 27.733333-305.066667 66.133333C215.466667 290.133333 224 298.666667 232.533333 307.2zM512-42.666667c-46.933333 0-85.333333 38.4-85.333333 85.333333 0 2.133333 0 2.133333 0 4.266667 27.733333-2.133333 55.466667-4.266667 85.333333-4.266667s57.6 2.133333 85.333333 4.266667c0-2.133333 0-2.133333 0-4.266667C597.333333-4.266667 558.933333-42.666667 512-42.666667zM512 85.333333c-221.866667 0-341.333333 70.4-341.333333 106.666667 0 23.466667 6.4 40.533333 14.933333 57.6C243.2 202.666667 366.933333 170.666667 512 170.666667c145.066667 0 268.8 32 326.4 78.933333 8.533333-17.066667 14.933333-34.133333 14.933333-57.6C853.333333 155.733333 733.866667 85.333333 512 85.333333z"  horiz-adv-x="1024" />

    
    <glyph glyph-name="iconset0237" unicode="&#59016;" d="M341.333333 640l128 0 0 42.666667-128 0L341.333333 640zM341.333333 725.333333l170.666667 0L512 768l-170.666667 0L341.333333 725.333333zM810.666667 853.333333 128 853.333333C81.066667 853.333333 42.666667 814.933333 42.666667 768l0-768c0-46.933333 38.4-85.333333 85.333333-85.333333l768 0c46.933333 0 85.333333 38.4 85.333333 85.333333L981.333333 682.666667 810.666667 853.333333zM298.666667 810.666667l426.666667 0 0-256L298.666667 554.666667 298.666667 810.666667zM810.666667-42.666667 213.333333-42.666667 213.333333 341.333333l597.333333 0L810.666667-42.666667zM938.666667 0c0-23.466667-19.2-42.666667-42.666667-42.666667l-42.666667 0L853.333333 341.333333c0 23.466667-19.2 42.666667-42.666667 42.666667L213.333333 384c-23.466667 0-42.666667-19.2-42.666667-42.666667l0-384L128-42.666667c-23.466667 0-42.666667 19.2-42.666667 42.666667L85.333333 768c0 23.466667 19.2 42.666667 42.666667 42.666667l128 0 0-256c0-23.466667 19.2-42.666667 42.666667-42.666667l426.666667 0c23.466667 0 42.666667 19.2 42.666667 42.666667L768 810.666667l21.333333 0 149.333333-149.333333L938.666667 0zM597.333333 597.333333l85.333333 0L682.666667 768l-85.333333 0L597.333333 597.333333z"  horiz-adv-x="1024" />

    
    <glyph glyph-name="iconset0438" unicode="&#59197;" d="M974.933333 398.933333l-298.666667 298.666667C672 701.866667 667.733333 704 661.333333 704c-12.8 0-21.333333-8.533333-21.333333-21.333333l0-192L128 490.666667c-46.933333 0-85.333333-38.4-85.333333-85.333333l0-42.666667c0-46.933333 38.4-85.333333 85.333333-85.333333l512 0 0-192c0-12.8 8.533333-21.333333 21.333333-21.333333 6.4 0 10.666667 2.133333 14.933333 6.4l298.666667 298.666667c4.266667 4.266667 6.4 8.533333 6.4 14.933333C981.333333 390.4 979.2 394.666667 974.933333 398.933333zM682.666667 136.533333 682.666667 277.333333l0 42.666667L128 320c-23.466667 0-42.666667 19.2-42.666667 42.666667l0 42.666667c0 23.466667 19.2 42.666667 42.666667 42.666667l554.666667 0 0 42.666667 0 140.8L930.133333 384 682.666667 136.533333z"  horiz-adv-x="1024" />

    
    <glyph glyph-name="liebiao" unicode="&#58926;" d="M475.09702 482.212836c0-40.939411-33.497928-74.437339-74.437339-74.437339L136.096143 407.775496c-40.940434 0-74.437339 33.497928-74.437339 74.437339L61.658803 758.039905c0 40.939411 33.495882 74.437339 74.437339 74.437339l264.565585 0c40.939411 0 74.437339-33.496905 74.437339-74.437339L475.09702 482.212836 475.09702 482.212836zM475.09702 9.947815c0-40.940434-33.497928-74.435293-74.437339-74.435293L136.096143-64.487477c-40.940434 0-74.437339 33.494858-74.437339 74.435293l0 275.821953c0 40.940434 33.495882 74.435293 74.437339 74.435293l264.565585 0c40.939411 0 74.437339-33.495882 74.437339-74.435293L475.09702 9.947815 475.09702 9.947815zM958.619432 482.212836c0-40.939411-33.495882-74.437339-74.437339-74.437339L619.603205 407.775496c-40.942481 0-74.436316 33.497928-74.436316 74.437339L545.166889 758.039905c0 40.939411 33.495882 74.437339 74.436316 74.437339l264.580934 0c40.940434 0 74.436316-33.496905 74.436316-74.437339L958.619432 482.212836zM958.623525 9.947815c0-40.940434-33.497928-74.435293-74.437339-74.435293L619.604228-64.487477c-40.941458 0-74.436316 33.494858-74.436316 74.435293l0 275.821953c0 40.940434 33.495882 74.435293 74.436316 74.435293l264.581957 0c40.940434 0 74.437339-33.495882 74.437339-74.435293L958.623525 9.947815z"  horiz-adv-x="1024" />

    
    <glyph glyph-name="tianjia" unicode="&#58929;" d="M512.625752 834.4072c-247.332085 0-447.833585-200.502523-447.833585-447.833585 0-247.331062 200.502523-447.832562 447.833585-447.832562 247.331062 0 447.832562 200.5015 447.832562 447.832562S759.956813 834.4072 512.625752 834.4072zM568.205605 109.219773l-102.777805-0.311085-0.684592 226.111784-226.111784-0.684592-0.312108 102.777805 226.112808 0.684592-0.684592 226.111784 102.777805 0.311085 0.684592-226.111784 226.113831 0.684592 0.311085-102.778828-226.111784-0.683569L568.205605 109.219773z"  horiz-adv-x="1024" />

    
    <glyph glyph-name="dianzan" unicode="&#58892;" d="M884.876 472.857h-237.905c92.186 340.464-63.517 357.853-63.517 357.853-65.993 0-52.312-52.182-57.303-60.882 0-166.502-176.85-296.972-176.85-296.972v-472.172c0-46.608 63.517-63.394 88.433-63.394h357.452c33.641 0 61.036 88.224 61.036 88.224 88.434 300.706 88.434 390.177 88.434 390.177 0.001 62.128-59.781 57.164-59.781 57.164v0 0zM251.671 472.7h-142.457c-29.42 0-29.873-28.896-29.873-28.896l29.42-476.203c0-30.309 30.361-30.309 30.361-30.309h123.297c25.686 0 25.459 20.050 25.459 20.050l-0 479.247c0 36.574-36.208 36.111-36.208 36.111v0 0zM251.671 472.7z"  horiz-adv-x="1024" />

    
    <glyph glyph-name="jianchagengxin" unicode="&#59015;" d="M924.186 690.982v-109.504c-79.642 169.664-258.97 279.782-456.358 261.299-246.618-23.053-428.826-237.85-413.747-483.226h43.725c-15.053 222.797 150.438 418.944 374.067 439.859 179.315 16.794 342.669-84.211 414.195-239.13h-92.621v-38.656l169.229-0.077v169.357l-38.49 0.077zM917.939 410.138c15.078-222.81-150.413-418.995-374.067-439.91-179.315-16.794-342.669 84.211-414.195 239.13h92.621v38.656l-169.242 0.077v-169.357l38.502-0.077v109.504c79.629-169.664 258.97-279.77 456.358-261.299 246.63 23.053 428.851 237.875 413.734 483.277h-43.712z"  horiz-adv-x="1024" />

    
    <glyph glyph-name="jiesuo" unicode="&#58985;" d="M753.845 524.326h-17.463v83.67c0 59.275-22.628 115.204-63.715 157.483-42.17 43.394-99.369 67.292-161.058 67.292-126.041 0-224.772-98.732-224.772-224.773v-83.67h-16.681c-62.788 0-113.688-50.9-113.688-113.688l-0-357.6c0-62.788 50.9-113.688 113.688-113.688h483.69c62.788 0 113.688 50.9 113.688 113.688l0 357.599c-0.002 62.788-50.901 113.688-113.689 113.688zM328.176 607.995c0 102.859 80.573 183.433 183.432 183.433 50.423 0 97.093-19.448 131.411-54.762 33.547-34.519 52.022-80.215 52.022-128.671v-83.67l-366.864-0v83.67zM826.192 53.038c0-39.956-32.391-72.347-72.347-72.347h-483.69c-39.956 0-72.347 32.391-72.347 72.347v357.599c0 39.956 32.391 72.347 72.347 72.347h483.69c39.956 0 72.347-32.391 72.347-72.347v-357.599zM509.933 315.553c-11.416 0-20.671-9.255-20.671-20.671v-109.554c0-11.415 9.255-20.671 20.671-20.671s20.671 9.255 20.671 20.671l0 109.555c-0.001 11.415-9.255 20.67-20.671 20.67z"  horiz-adv-x="1024" />

    
    <glyph glyph-name="caidan1" unicode="&#58930;" d="M673.496138 359.37516c-27.525913 12.308327-61.372789 22.62837-70.195735 25.168216 18.326391 10.506285 35.379789 23.506367 50.718125 38.851866 45.367257 45.37749 70.355371 105.711624 70.355371 169.887248 0 64.179718-24.988114 124.511805-70.355371 169.891342-45.369304 45.379537-105.692181 70.370721-169.851433 70.370721-64.162322 0-124.481106-24.991184-169.850409-70.370721-45.36828-45.384653-70.352301-105.711624-70.352301-169.891342 0-64.175625 24.984021-124.509758 70.352301-169.887248 15.57472-15.579837 32.91669-28.756951 51.563376-39.344077-8.396227-2.463098-16.726963-5.174859-24.982998-8.162914-44.709271-16.182564-86.161359-39.669488-123.208113-69.801762-74.263377-60.405765-126.453017-144.876622-146.94677-237.855246-2.916423-13.232372 5.446036-26.328645 18.675338-29.248138 1.785669-0.393973 3.559059-0.580215 5.304819-0.580215 11.262508 0 21.416775 7.803733 23.939225 19.261693 18.119683 82.199117 64.284095 156.900469 129.990586 210.341612 32.767288 26.650987 69.419046 47.420009 108.943224 61.729923 40.896432 14.801101 83.904968 22.311145 127.826294 22.311145 43.790342 0 96.062869-8.011464 140.674926-26.140357M293.03601 593.283514c0 105.414865 85.74078 191.177134 191.130062 191.177134 105.394399 0 191.133132-85.761246 191.133132-191.177134 0-105.417935-85.738733-191.178157-191.133132-191.178157C378.776789 402.105357 293.03601 487.865579 293.03601 593.283514L293.03601 593.283514zM293.03601 593.283514M762.308883 42.187077l148.606573 0-32.295544 32.374338c-5.423523 5.435803-5.423523 14.249539 0 19.686365 5.421476 5.437849 14.216793 5.437849 19.641339 0l55.996338-56.129368c0.167822-0.164752 0.329505-0.338714 0.487094-0.5137 0.058328-0.062422 0.112564-0.12689 0.166799-0.190335 0.091074-0.107447 0.186242-0.213871 0.276293-0.322341 0.079818-0.098237 0.152473-0.194428 0.228197-0.291642 0.063445-0.083911 0.124843-0.160659 0.186242-0.242524 0.083911-0.112564 0.160659-0.225127 0.239454-0.338714 0.051165-0.071631 0.100284-0.141216 0.149403-0.214894 0.078795-0.118704 0.153496-0.237407 0.230244-0.361227 0.046049-0.068562 0.090051-0.141216 0.132006-0.211824 0.074701-0.121773 0.140193-0.2415 0.207731-0.36532 0.045025-0.075725 0.088004-0.152473 0.12996-0.229221 0.063445-0.115634 0.119727-0.233314 0.178055-0.348947 0.044002-0.088004 0.090051-0.178055 0.12996-0.268106 0.052189-0.104377 0.098237-0.211824 0.144286-0.317225 0.047072-0.106424 0.091074-0.208754 0.135076-0.315178 0.040932-0.093121 0.077771-0.189312 0.113587-0.286526 0.046049-0.119727 0.091074-0.236384 0.1361-0.358157 0.028653-0.084934 0.056282-0.169869 0.083911-0.252757 0.045025-0.134053 0.090051-0.268106 0.130983-0.403183 0.020466-0.072655 0.042979-0.146333 0.061398-0.223081 0.042979-0.144286 0.082888-0.288572 0.119727-0.437975 0.016373-0.067538 0.029676-0.135076 0.046049-0.206708 0.034792-0.148379 0.068562-0.302899 0.098237-0.454348 0.016373-0.071631 0.026606-0.141216 0.038886-0.212848 0.028653-0.152473 0.053212-0.300852 0.077771-0.453325 0.010233-0.079818 0.01842-0.163729 0.029676-0.243547 0.01842-0.141216 0.037862-0.284479 0.051165-0.426719 0.010233-0.109494 0.016373-0.220011 0.024559-0.324388 0.010233-0.118704 0.020466-0.234337 0.024559-0.353041 0.010233-0.203638 0.014326-0.407276 0.017396-0.60989 0-0.024559 0.001023-0.051165 0.001023-0.075725 0-0.027629-0.001023-0.050142-0.001023-0.075725-0.00307-0.203638-0.00614-0.408299-0.017396-0.610914-0.004093-0.11768-0.014326-0.233314-0.024559-0.352017-0.008186-0.107447-0.014326-0.214894-0.024559-0.325411-0.013303-0.143263-0.031722-0.284479-0.051165-0.425695-0.011256-0.081864-0.020466-0.163729-0.029676-0.243547-0.024559-0.152473-0.049119-0.303922-0.077771-0.455371-0.01228-0.070608-0.022513-0.141216-0.038886-0.210801-0.029676-0.153496-0.063445-0.304945-0.098237-0.455371-0.017396-0.069585-0.029676-0.138146-0.046049-0.207731-0.036839-0.148379-0.077771-0.293689-0.119727-0.436952-0.01842-0.074701-0.040932-0.149403-0.061398-0.223081-0.040932-0.135076-0.085958-0.270153-0.130983-0.403183-0.027629-0.085958-0.055259-0.169869-0.083911-0.252757-0.045025-0.12075-0.089028-0.2415-0.1361-0.358157-0.036839-0.098237-0.072655-0.193405-0.113587-0.286526-0.044002-0.105401-0.088004-0.210801-0.135076-0.314155-0.046049-0.107447-0.092098-0.212848-0.144286-0.320295-0.039909-0.088004-0.085958-0.177032-0.12996-0.267083-0.058328-0.116657-0.11768-0.232291-0.178055-0.347924-0.041956-0.076748-0.084934-0.155543-0.12996-0.231267-0.067538-0.121773-0.134053-0.245593-0.207731-0.36532-0.041956-0.070608-0.089028-0.141216-0.132006-0.214894-0.076748-0.119727-0.151449-0.23843-0.230244-0.357134-0.049119-0.072655-0.101307-0.144286-0.149403-0.214894-0.079818-0.11461-0.157589-0.225127-0.239454-0.338714-0.062422-0.083911-0.122797-0.160659-0.186242-0.242524-0.075725-0.096191-0.148379-0.195451-0.228197-0.291642-0.089028-0.10847-0.184195-0.214894-0.276293-0.322341-0.054235-0.063445-0.10847-0.12689-0.166799-0.191358-0.158612-0.176009-0.320295-0.345877-0.487094-0.512676l-55.996338-56.127322c-2.712785-2.719948-6.266727-4.077875-9.822716-4.077875-3.554966 0-7.107885 1.358951-9.82067 4.077875-5.423523 5.435803-5.423523 14.252609 0 19.687388l32.29759 32.371268L762.308883 14.340869c-7.670703 0-13.888312 6.232958-13.888312 13.922081C748.420571 35.955142 754.638179 42.187077 762.308883 42.187077L762.308883 42.187077zM804.428166 208.599178c0 7.689123-6.220678 13.922081-13.891382 13.922081L608.401584 222.521259c-7.670703 0-13.890358-6.232958-13.890358-13.922081 0-7.689123 6.219655-13.921058 13.890358-13.921058l182.1352 0C798.208511 194.67812 804.428166 200.910055 804.428166 208.599178L804.428166 208.599178zM776.424368 127.911484c0 7.689123-6.219655 13.921058-13.889335 13.921058L608.401584 141.832542c-7.670703 0-13.890358-6.231935-13.890358-13.921058s6.219655-13.921058 13.890358-13.921058l154.13345 0C770.204713 113.990426 776.424368 120.222361 776.424368 127.911484L776.424368 127.911484zM608.401584 64.788841c-7.670703 0-13.890358-6.232958-13.890358-13.920034 0-7.688099 6.219655-13.923104 13.890358-13.923104l84.010369 0c7.670703 0 13.889335 6.235005 13.889335 13.923104 0 7.687076-6.218632 13.920034-13.889335 13.920034L608.401584 64.788841 608.401584 64.788841zM815.304887-40.862407c3.64297 7.614421 5.617951 5.571902 5.617951 13.322423 0 7.637957-6.091742 20.437471-13.667278 20.618597l0 0.008186L575.254649-6.913201c-4.946662 0-2.364861-2.558265-2.364861 2.39863L572.889789 264.732639c0 4.957919-2.581802 2.400676 2.364861 2.400676l248.431116 0c4.945639 0 2.366907 2.558265 2.366907-2.400676l0-166.406984c0-7.688099 12.822027-13.920034 20.49273-13.920034 7.66968 0 20.493753 6.231935 20.493753 13.920034L867.039155 264.732639c0 20.310581-23.090904 43.427068-43.35339 43.427068L575.254649 308.159708c-20.263509 0-43.35339-23.115464-43.35339-43.427068l0-269.246187c0-20.308535 23.089881-43.423999 43.35339-43.423999l229.173516 0"  horiz-adv-x="1024" />

    
    <glyph glyph-name="icon-project" unicode="&#58954;" d="M830.956 608.468c0 52.881-43.011 95.893-95.891 95.893h-575.362c-52.875 0-95.892-43.012-95.892-95.893v-575.358c0-52.876 43.017-95.893 95.892-95.893l575.362 0c52.88 0 95.891 43.017 95.891 95.893v575.358zM159.703 640.436h575.362c17.606 0 31.967-14.361 31.967-31.968v-159.817h-639.291v159.817c0 17.607 14.355 31.968 31.962 31.968zM735.065 1.146h-575.362c-17.607 0-31.962 14.361-31.962 31.963l-0 351.612h639.291v-351.612c-0-17.602-14.361-31.963-31.967-31.963zM703.574 576.505h-63.931v-63.93h63.931v63.93zM223.633 512.575h287.712c17.634 0 31.928 14.362 31.928 31.968 0 17.668-14.295 31.961-31.928 31.961h-287.712c-17.635 0-31.934-14.294-31.934-31.961 0-17.606 14.3-31.968 31.934-31.968zM862.924 832.221h-575.36c-52.881 0-95.864-43.017-95.864-95.892h63.896c0 17.607 14.361 31.962 31.968 31.962h575.361c17.635 0 31.963-14.355 31.963-31.962v-575.356c0-17.606-14.328-31.972-31.963-31.972v-63.924c52.876 0 95.893 43.011 95.893 95.896l-0 575.356c-0.001 52.875-43.018 95.892-95.894 95.892z"  horiz-adv-x="1024" />

    
    <glyph glyph-name="xiazai16" unicode="&#58897;" d="M768 512C732.672 512 704 483.328 704 448 704 412.672 732.672 384 768 384 803.328 384 832 412.672 832 448 832 483.328 803.328 512 768 512L768 512ZM512 64C474.624 64 438.528 68.352 403.84 75.744L253.184-14.816 255.2 133.632C139.712 203.072 64 317.888 64 448 64 660.064 264.576 832 512 832 759.424 832 960 660.064 960 448 960 235.904 759.424 64 512 64L512 64ZM512 896C229.248 896 0 695.392 0 448 0 306.592 75.04 180.672 192 98.592L192-128 416.288 8.096C447.328 2.976 479.264 0 512 0 794.752 0 1024 200.576 1024 448 1024 695.392 794.752 896 512 896L512 896ZM256 512C220.672 512 192 483.328 192 448 192 412.672 220.672 384 256 384 291.328 384 320 412.672 320 448 320 483.328 291.328 512 256 512L256 512ZM512 512C476.672 512 448 483.328 448 448 448 412.672 476.672 384 512 384 547.328 384 576 412.672 576 448 576 483.328 547.328 512 512 512L512 512Z"  horiz-adv-x="1024" />

    
    <glyph glyph-name="ai-home" unicode="&#58893;" d="M592.795-46.076v255.69h-160.738v-256.373c-5.023-0.259-9.031-0.648-13.039-0.648-75.895 0-151.828-0.041-227.728 0-26.080 0-43.617 16.728-43.733 44.431-0.527 105.2-0.366 210.487 0.117 315.687 0 5.547 4.214 12.642 8.466 16.428 68.686 60.686 137.734 120.984 206.665 181.33 45.884 40.169 91.729 80.341 137.612 120.468 3.565 3.098 7.213 6.106 11.704 9.939 27.378-23.917 54.633-47.699 81.849-71.526 89.783-78.581 179.449-157.332 269.476-235.612 9.679-8.384 13.81-16.899 13.728-30.446-0.566-99.872-0.406-199.778-0.201-299.603 0.038-18.152-4.214-33.937-19.321-43.959-5.468-3.649-12.392-6.794-18.668-6.836-80.552-0.43-161.103-0.211-241.61-0.17-1.175-0.002-2.396 0.558-4.579 1.199v0zM713.764 661.814c0 42.193-0.040 81.158 0 120.085 0.038 24.858 5.627 30.793 28.995 30.835 36.287 0 72.574 0.041 108.861-0.042 18.711-0.047 25.187-7.053 25.231-28.086 0.084-83.307 0.282-166.664-0.245-249.971-0.082-12.86 3.322-21.115 12.834-29.287 39.775-33.979 78.772-68.901 117.975-103.61 19.233-17.034 19.721-25.33 3.521-45.591-9.797-12.3-19.394-24.816-29.279-37.075-12.148-15.179-22.193-16.126-36.731-3.221-139.192 123.352-278.385 246.788-417.621 370.181-4.819 4.257-9.758 8.432-15.392 13.337-31.303-27.703-62.366-55.1-93.348-82.58-112.988-100.131-225.979-200.296-338.97-300.42-15.308-13.59-24.821-12.777-37.7 3.225-10.657 13.29-21.262 26.667-31.751 40.080-12.232 15.657-11.743 25.766 3.037 38.967 63.054 56.042 126.275 111.871 189.451 167.782 84.194 74.537 168.471 148.983 252.627 223.648 38.188 33.85 75.367 33.85 113.639-0.258 45.235-40.298 90.597-80.43 135.91-120.598 2.151-1.897 4.418-3.657 8.954-7.402v0zM713.764 661.814z"  horiz-adv-x="1024" />

    
    <glyph glyph-name="delete" unicode="&#58928;" d="M512 57.142c10.89 0 19.732 9.158 19.732 20.43v490.275c0 11.273-8.842 20.43-19.732 20.43s-19.755-9.157-19.755-20.43v-490.275c0-11.272 8.842-20.43 19.755-20.43M629.877 57.187c10.935-0.428 20.138 8.37 20.475 19.688l28.665 489.69c0.427 11.272-8.077 20.745-18.99 21.195-10.935 0.405-20.137-8.415-20.475-19.688l-28.665-489.713c-0.405-11.317 8.1-20.767 18.99-21.172M848.038 710.858h-197.708v81.653c0 22.545-17.685 40.882-39.51 40.882h-197.64c-21.87 0-39.532-18.338-39.532-40.882v-81.653h-197.685c-10.913 0-19.755-9.158-19.755-20.475 0-11.272 8.843-20.407 19.755-20.407h39.577l39.488-653.67c6.367-44.73 35.415-81.72 79.065-81.72h355.793c43.65 0 71.573 37.44 79.088 81.72l39.488 653.67h39.578c10.867 0 19.755 9.135 19.755 20.408 0 11.317-8.888 20.475-19.755 20.475M413.157 792.51h197.64v-81.653h-197.64v81.653zM729.418 16.305c-2.655-21.555-17.73-40.86-39.533-40.86h-355.793c-21.87 0-36.54 19.057-39.532 40.86l-39.532 653.67h513.945l-39.555-653.67zM394.145 57.142c10.89 0.473 19.373 9.9 18.99 21.195l-29.070 489.712c-0.427 11.273-9.585 20.070-20.475 19.665-10.913-0.428-19.463-9.9-19.013-21.173l29.093-489.712c0.36-11.295 9.54-20.070 20.475-19.688z"  horiz-adv-x="1024" />

    
    <glyph glyph-name="yooxi" unicode="&#58903;" d="M171.978375 246.581234l3.996011 41.962717 7.7935 142.271284 2.198062 57.348126 0 31.171953c20.681018-0.268106 38.95829-0.400113 54.837956-0.400113 11.340279 0 27.281343 0.130983 47.831378 0.400113l85.297688-155.118893 11.757788-22.789029c1.502213 22.385846 3.038196 53.769624 4.611018 94.149287 1.570775 40.378639 2.357697 68.297502 2.357697 83.758636 16.366759-0.268106 29.476335-0.400113 39.323611-0.400113 4.524037 0 17.566074 0.130983 39.124066 0.400113l-4.796236-59.546188-8.991792-165.451216-1.198292-47.756677c-17.331737 0.26606-33.529651 0.400113-48.590672 0.400113-12.532431 0-29.860075-0.134053-51.987025-0.400113-6.918573 13.057387-12.042267 22.520923-15.368012 28.386514l-33.525558 56.970526c-11.04352 18.654872-21.221324 36.514635-30.531364 53.574173-6.119371 10.79281-12.43931 22.654976-18.957771 35.580357l-4.298909-94.752014-2.047636-79.758532c-16.500812 0.26606-29.074176 0.400113-37.722136 0.400113C205.773062 246.98134700000003 192.069969 246.84729400000003 171.978375 246.581234zM672.7261 524.53064c21.311375 0 41.827641-2.866281 61.544705-8.591679 19.713994-5.729491 36.966936-14.887059 51.752688-27.475771 14.786775-12.588713 25.842575-27.075659 33.17047-43.460838 7.324826-16.385179 10.989285-35.237549 10.989285-56.548924 0-22.379707-4.02978-42.929742-12.088316-61.643965-8.061606-18.717294-19.681248-34.603099-34.868135-47.656393-15.186887-13.057387-33.304524-22.615067-54.350862-28.674063-21.049409-6.060019-42.960441-9.092076-65.74026-9.092076-22.51376 0-44.094264 2.965541-64.741513 8.891508-20.651342 5.925966-38.600133 15.517415-53.851489 28.774347-15.255449 13.252839-26.075889 28.005844-32.470529 44.26004-6.39464 16.251126-9.591449 34.3002-9.591449 54.151317 0 29.173436 6.759961 54.781674 20.281929 76.829829 13.518898 22.046109 33.56956 39.265282 60.144822 51.653427C609.482707 518.335545 639.421576 524.53064 672.7261 524.53064zM669.129178 464.384795c-15.32094 0-29.17446-3.765767-41.562605-11.290137-12.388145-7.52744-21.914102-17.983583-28.574802-31.371498-6.662747-13.387915-9.990538-27.743878-9.990538-43.061748 0-14.121626 3.027963-27.043936 9.092076-38.764885 6.060019-11.724019 15.286148-20.880563 27.674293-27.475771 12.389168-6.593162 25.508977-9.891278 39.365566-9.891278 14.785751 0 28.339442 3.697205 40.662095 11.090593 12.320607 7.393387 21.712511 17.784038 28.17469 31.171953 6.460132 13.387915 9.691733 27.406187 9.691733 42.061978 0 14.252609-2.997264 27.406187-8.991792 39.463804-5.994528 12.054547-14.786775 21.411659-26.375717 28.074406C696.704211 461.05291 683.647847 464.384795 669.129178 464.384795zM496.438071-84.347804c-62.223157 0-122.595152 12.190647-179.437765 36.233226-54.895261 23.217794-104.190991 56.45478-146.521075 98.783841-42.330084 42.330084-75.566046 91.626837-98.784864 146.523121C47.652811 254.03499599999998 35.462165 314.40699199999995 35.462165 376.631172c0 62.22418 12.190647 122.596176 36.233226 179.438789 23.218818 54.895261 56.45478 104.192014 98.784864 146.522098s91.626837 75.565023 146.521075 98.783841c56.842613 24.042579 117.214608 36.233226 179.437765 36.233226 62.22418 0 122.596176-12.190647 179.439812-36.233226 54.895261-23.218818 104.190991-56.453756 146.522098-98.783841 42.329061-42.330084 75.565023-91.626837 98.783841-146.522098 24.041556-56.842613 36.232203-117.214608 36.232203-179.438789 0-62.22418-12.190647-122.596176-36.232203-179.438789-23.218818-54.896284-56.45478-104.192014-98.783841-146.523121-42.330084-42.329061-91.626837-75.566046-146.522098-98.783841C619.034247-72.15613399999995 558.662251-84.347804 496.438071-84.347804zM496.438071 802.816714c-234.998175 0-426.184519-191.186344-426.184519-426.185542S261.439896-49.55539299999998 496.438071-49.55539299999998c234.999199 0 426.185542 191.186344 426.185542 426.185542S731.43727 802.816714 496.438071 802.816714z"  horiz-adv-x="1024" />

    
    <glyph glyph-name="shangchuan2" unicode="&#58979;" d="M614.33062 281.66938c8.727779 0 17.454534 3.330862 24.11728 9.993608 13.32447 13.32447 13.32447 34.910091 0 48.233538l-102.241592 102.241592c-0.440022 0.444115-0.893346 0.87595-1.356904 1.294482-0.01842 0.016373-0.037862 0.031722-0.056282 0.049119-0.394996 0.355087-0.797156 0.700965-1.208525 1.037632-0.143263 0.11768-0.290619 0.227174-0.434905 0.341784-0.288572 0.228197-0.576121 0.456395-0.871857 0.675382-0.203638 0.151449-0.412392 0.293689-0.618077 0.440022-0.24457 0.172939-0.487094 0.346901-0.735757 0.512676-0.234337 0.156566-0.472767 0.304945-0.711198 0.455371-0.230244 0.145309-0.459464 0.292666-0.692778 0.432859-0.24764 0.148379-0.497327 0.288572-0.748037 0.429789-0.234337 0.13303-0.468674 0.26606-0.706081 0.393973-0.243547 0.130983-0.491187 0.25378-0.73678 0.3776-0.254803 0.127913-0.508583 0.25685-0.766456 0.378623-0.229221 0.10847-0.460488 0.209778-0.691755 0.313132-0.282433 0.125867-0.564865 0.251733-0.851391 0.370437-0.209778 0.085958-0.420579 0.166799-0.63138 0.248663-0.313132 0.121773-0.626263 0.243547-0.944512 0.356111-0.187265 0.066515-0.376577 0.127913-0.564865 0.191358-0.342808 0.115634-0.685615 0.229221-1.033539 0.333598-0.169869 0.051165-0.340761 0.097214-0.511653 0.145309-0.36532 0.103354-0.730641 0.205685-1.100054 0.296759-0.162706 0.039909-0.326435 0.074701-0.48914 0.112564-0.375553 0.086981-0.751107 0.172939-1.131777 0.24764-0.171915 0.033769-0.343831 0.061398-0.515746 0.092098-0.369414 0.066515-0.738827 0.13303-1.112334 0.188288-0.205685 0.030699-0.412392 0.052189-0.618077 0.078795-0.339738 0.042979-0.678452 0.089028-1.02126 0.122797-0.284479 0.027629-0.568958 0.044002-0.853437 0.064468-0.268106 0.019443-0.535189 0.045025-0.804319 0.057305-1.12359 0.055259-2.249227 0.055259-3.372817 0-0.270153-0.013303-0.536212-0.037862-0.804319-0.057305-0.284479-0.020466-0.569982-0.036839-0.853437-0.064468-0.342808-0.033769-0.681522-0.078795-1.02126-0.122797-0.206708-0.026606-0.412392-0.048095-0.618077-0.078795-0.373507-0.055259-0.74292-0.12075-1.112334-0.188288-0.171915-0.030699-0.343831-0.058328-0.515746-0.092098-0.379647-0.074701-0.756223-0.160659-1.131777-0.24764-0.162706-0.037862-0.326435-0.072655-0.48914-0.112564-0.369414-0.092098-0.735757-0.193405-1.100054-0.296759-0.170892-0.048095-0.341784-0.094144-0.511653-0.145309-0.346901-0.104377-0.690732-0.217964-1.033539-0.333598-0.188288-0.063445-0.3776-0.124843-0.564865-0.191358-0.317225-0.113587-0.63138-0.234337-0.944512-0.356111-0.210801-0.081864-0.421602-0.162706-0.63138-0.248663-0.286526-0.118704-0.568958-0.243547-0.851391-0.370437-0.231267-0.103354-0.462534-0.204661-0.691755-0.313132-0.257873-0.121773-0.511653-0.25071-0.766456-0.378623-0.246617-0.12382-0.493234-0.24764-0.73678-0.3776-0.23843-0.12689-0.471744-0.260943-0.706081-0.393973-0.249687-0.141216-0.500397-0.281409-0.748037-0.429789-0.234337-0.140193-0.462534-0.287549-0.692778-0.432859-0.237407-0.150426-0.475837-0.298805-0.711198-0.455371-0.248663-0.165776-0.491187-0.339738-0.735757-0.512676-0.206708-0.146333-0.414439-0.288572-0.618077-0.440022-0.295735-0.218988-0.583285-0.447185-0.871857-0.675382-0.144286-0.11461-0.291642-0.224104-0.434905-0.341784-0.411369-0.336668-0.813528-0.682545-1.208525-1.037632-0.01842-0.016373-0.037862-0.031722-0.056282-0.049119-0.463558-0.418532-0.915859-0.850367-1.355881-1.293459l-102.242616-102.242616c-13.32447-13.32447-13.32447-34.910091 0-48.233538 13.32447-13.32447 34.910091-13.32447 48.233538 0l44.103474 44.103474 0-190.537568c0-18.837021 15.272845-34.109866 34.109866-34.109866s34.109866 15.272845 34.109866 34.109866L546.110889 335.766462l44.103474-44.103474C596.875063 285.000242 605.602841 281.66938 614.33062 281.66938zM773.222443 512.32976c-44.886303 88.373747-135.558395 144.552234-235.639788 144.552234-89.706091 0-172.616406-45.319162-221.250056-119.601982-78.247108-4.063549-141.187603-67.005067-145.234779-145.268548-42.187845-28.214599-68.420299-76.015278-68.420299-127.396505 0-84.642772 68.853158-153.49593 153.49593-153.49593l119.386064 0c18.837021 0 34.109866 15.272845 34.109866 34.109866s-15.272845 34.109866-34.109866 34.109866L256.17345 179.33876c-47.01785 0-85.275175 38.257326-85.275175 85.275175 0 32.861432 19.470447 63.140039 49.616024 77.130681 13.124925 6.112208 20.969591 19.820418 19.569708 34.243919l-0.966001 8.011464c0 46.834678 37.957497 84.975347 86.890976 84.975347 0.183172 0 0.382717 0 0.565888 0l5.580089-0.649799c13.557784-1.299599 26.465768 5.745864 32.94432 17.687848 34.409694 63.324234 100.498902 102.646821 172.483376 102.646821 78.613452 0 149.398612-46.735417 180.344414-119.052466 4.447289-10.392698 13.757329-17.904789 24.866341-20.070104 63.922868-12.391215 110.308315-68.653613 110.308315-133.759423 0-75.232448-61.208037-136.440485-136.440485-136.440485l-68.220754 0c-18.837021 0-34.109866-15.272845-34.109866-34.109866s15.272845-34.109866 34.109866-34.109866l68.220754 0c112.856347 0 204.66124 91.804892 204.66124 204.66124C921.322479 407.467481 860.030531 487.447047 773.222443 512.32976z"  horiz-adv-x="1024" />

    
    <glyph glyph-name="tianjia2" unicode="&#58950;" d="M512 844.8c254.1056 0 460.8-206.7456 460.8-460.8s-206.6944-460.8-460.8-460.8-460.8 206.7456-460.8 460.8S257.8944 844.8 512 844.8M512 896C229.2224 896 0 666.7776 0 384s229.2224-512 512-512 512 229.2224 512 512S794.7776 896 512 896L512 896zM793.6 409.6l-256 0 0 256C537.6 679.7312 526.1312 691.2 512 691.2 497.8688 691.2 486.4 679.7312 486.4 665.6l0-256-256 0C216.2688 409.6 204.8 398.1312 204.8 384s11.4688-25.6 25.6-25.6l256 0 0-256c0-14.1312 11.4688-25.6 25.6-25.6 14.1312 0 25.6 11.4688 25.6 25.6l0 256 256 0c14.1312 0 25.6 11.4688 25.6 25.6S807.7312 409.6 793.6 409.6z"  horiz-adv-x="1024" />

    
    <glyph glyph-name="mianfeiquxiao" unicode="&#59007;" d="M244.408499 450.980507l220.404806 220.404806 0-132.243907c0 0 197.134823-38.731116 264.485767-132.242883 132.242883-183.610808-132.242883-308.565704-132.242883-308.565704s90.455151 162.436556 44.080961 220.404806c-41.519626 51.89902-176.323844 44.079938-176.323844 44.079938l0-132.242883L244.408499 450.980507z"  horiz-adv-x="1024" />

    
    <glyph glyph-name="tianjia1" unicode="&#59104;" d="M902.091 170.803h-139.659v-148.421c0-12.209-9.649-22.103-21.568-22.103h-29.633c-11.911 0-21.565 9.893-21.565 22.103v148.421h-139.654c-11.914 0-21.565 9.922-21.565 22.102v30.402c0 12.205 9.649 22.099 21.565 22.099h139.66v148.45c0 12.205 9.699 22.103 21.565 22.103h29.633c11.914 0 21.565-9.899 21.565-22.103v-148.451h139.659c11.916 0 21.558-9.893 21.558-22.099v-30.402c-0.001-12.18-9.649-22.101-21.559-22.101v0 0 0zM330.508 795.746h430.885c95.209 0 172.346-79.131 172.346-176.771v-240.31c0-21.463-20.576-24.833-20.576-24.833v0h-17.327c-18.166 0-19.643 25.157-19.643 25.157v75.292h-746.636v-277.226c0 0 30.076-112.56 114.745-112.56h322.835c0 0 21.904-1.549 21.904-20.086v-21.435c0-20.947-21.116-22.694-21.116-22.694h-323.622c-95.157 0-172.342 79.134-172.342 176.777v619.531M129.164 739.162v-227.801h750.377v108.717c0 105.1-101.798 119.084-101.798 119.084h-550.123z"  horiz-adv-x="1024" />

    
    <glyph glyph-name="yanjing1" unicode="&#58984;" d="M502.054 712.32c69.605-0.133 132.349-14.482 192.58-40.424 68.932-29.689 129.792-71.797 185.902-121.183 47.445-41.758 90.322-87.848 129.929-137.026 13.577-16.859 12.714-30.815 2.157-46.452-29.091-43.085-62.349-82.697-98.383-120.04-48.923-50.701-103.14-94.712-164.84-129.088-52.59-29.3-108.311-49.788-168.13-58.164-74.098-10.375-146.114-1.624-216.238 24.098-74.147 27.196-139.002 69.687-198.604 120.729-57.139 48.933-107.566 104.215-153.463 163.708-12.511 16.217-12.712 25.623-0.805 42.445 53.434 75.496 117.087 140.989 191.974 195.392 49.495 35.958 102.841 64.598 161.175 83.529 45.676 14.823 92.546 22.319 136.749 22.473zM729.829 583.647c62.471-114.537 26.775-243.337-55.2-312.739-85.635-72.502-206.65-80.404-298.895-18.919-55.437 36.951-91.14 88.173-105.728 153.369-14.559 65.065-3.497 126.304 29.599 184.028-89.074-49.493-160.202-118.702-222.228-198.313 28.273-35.352 57.686-68.854 89.381-100.289 28.474-28.243 58.594-54.593 91.232-78.017 59.076-42.4 123.006-73.687 195.211-86.407 46.052-8.116 92.043-8.097 137.882 1.203 67.85 13.766 128.424 43.944 183.977 84.295 65.973 47.922 121.714 106.232 169.908 171.884 2.369 3.228 2.381 5.26-0.301 8.232-18.146 20.096-35.688 40.754-54.262 60.443-41.478 43.972-86.637 83.725-137.453 116.748-7.624 4.955-15.412 9.661-23.122 14.479zM338.953 449.713c1.141-3.841 1.933-9.901 4.648-14.923 4.954-9.165 17.306-12.925 29.093-10.007 11.171 2.767 17.454 11.352 19.1 23.42 1.913 14.034 3.599 28.346 7.818 41.773 16.275 51.814 52.514 80.178 105.998 86.948 15.556 1.969 26.188 13.654 25.942 29.385-0.226 14.399-9.358 23.32-23.712 22.702-5.562-0.239-11.118-1.18-16.623-2.113-32.155-5.451-61.785-16.983-87.005-38.054-42.629-35.615-59.669-83.495-65.258-139.132z"  horiz-adv-x="1024" />

    
    <glyph glyph-name="xin1" unicode="&#58891;" d="M511.987-15.927c-11.778 0-23.397 3.967-32.717 11.169-6.322 4.887-63.714 49.503-131.443 110.731-90.284 81.62-155.042 152.78-192.476 211.504-16.984 26.669-33.263 53.062-45.803 82.796-14.956 35.462-22.225 70.536-22.225 107.227 0 67.594 24.281 131.373 68.372 179.587 45.312 49.55 105.938 76.838 170.712 76.838 72.511 0 140.648-35.542 185.59-94.887 44.955 59.343 113.097 94.887 185.596 94.887 64.765 0 125.388-27.288 170.701-76.837 44.098-48.219 68.383-111.998 68.383-179.588 0-83.24-39.333-144.955-68.054-190.018-37.422-58.726-102.177-129.888-192.467-211.51-67.731-61.229-125.131-105.847-131.453-110.732C535.378-11.962 523.761-15.927 511.987-15.927zM326.407 713.927c-50.567 0-98.09-21.515-133.814-60.581-35.642-38.975-55.27-90.771-55.27-145.845 0-29.887 5.984-58.605 18.295-87.797 11.03-26.153 26.114-50.57 41.901-75.358 84.647-132.791 303.07-302.387 312.327-309.542 0.781-0.604 1.595-0.73 2.141-0.73 0.545 0 1.36 0.127 2.146 0.734 9.253 7.15 227.699 176.748 312.323 309.545 28.228 44.291 60.22 94.487 60.22 163.148 0 55.07-19.632 106.866-55.279 145.845-35.727 39.065-83.246 60.58-133.805 60.58-67.126 0-129.784-39.45-163.522-102.955-4.338-8.167-12.831-13.271-22.078-13.271-0.001 0-0.002 0-0.003 0-9.248 0.001-17.74 5.107-22.078 13.276C456.194 674.478 393.542 713.927 326.407 713.927z"  horiz-adv-x="1024" />

    
    <glyph glyph-name="shenfenzheng" unicode="&#58937;" d="M699.129958 709.401138l229.264591 0c12.737092 0 25.474185-8.491395 25.474185-25.474185l0 0 0-590.143755c0-12.737092-12.737092-25.474185-25.474185-25.474185l0 0L699.129958 68.309014l0 50.947346 203.790406 0L902.920364 658.453792 699.129958 658.453792 699.129958 709.401138 699.129958 709.401138zM699.129958 238.135888l144.351666 0c12.737092 0 21.228487 8.491395 21.228487 16.98279 0 12.737092-8.491395 21.228487-21.228487 21.228487L699.129958 276.347165 699.129958 238.135888 699.129958 238.135888zM699.129958 361.259066l144.351666 0c12.737092 0 21.228487 8.491395 21.228487 21.228487 0 12.737092-8.491395 21.228487-21.228487 21.228487L699.129958 403.716041 699.129958 361.259066 699.129958 361.259066zM699.129958 488.627942l144.351666 0c12.737092 0 21.228487 8.491395 21.228487 21.228487s-8.491395 21.228487-21.228487 21.228487L699.129958 531.084916 699.129958 488.627942zM329.759399 709.401138l369.370559 0 0-50.947346L329.759399 658.453792 329.759399 709.401138 329.759399 709.401138zM699.129958 68.310038 329.759399 68.310038l0 50.947346 369.370559 0L699.129958 68.310038 699.129958 68.310038zM699.129958 531.084916l0-42.455951L554.778292 488.628966c-8.491395 0-16.98279 8.491395-16.98279 21.228487s8.491395 21.228487 16.98279 21.228487L699.129958 531.08594 699.129958 531.084916zM699.129958 403.715017l0-42.455951L554.778292 361.259066c-8.491395 0-16.98279 8.491395-16.98279 21.228487 0 12.737092 8.491395 21.228487 16.98279 21.228487L699.129958 403.716041 699.129958 403.715017zM699.129958 276.346141l0-38.211277L554.778292 238.134865c-8.491395 0-16.98279 8.491395-16.98279 16.98279 0 12.737092 8.491395 21.228487 16.98279 21.228487L699.129958 276.346141 699.129958 276.346141zM329.759399 233.89019l0 42.455951 97.650017 0 0 21.228487 0 0 0 0c0 8.491395-4.245697 16.98279-12.737092 21.228487-12.737092 8.491395-25.474185 12.737092-38.210253 12.737092l0 0 0 0-46.701648 0 0 46.701648 0 0 0 0c21.228487 0 38.211277 8.491395 55.193043 25.474185 12.737092 12.737092 21.228487 33.965579 21.228487 55.193043l0 0 0 0 0 0 0 0c0 21.228487-8.491395 42.455951-21.228487 55.193043-16.98279 12.737092-33.965579 21.228487-55.193043 21.228487l0 0 0 0 0 42.455951 0 0 0 0c29.719882 0 59.438741-12.737092 84.912925-33.965579 21.228487-21.228487 33.965579-50.947346 33.965579-84.912925l0 0 0 0 0 0 0 0c0-33.965579-12.737092-63.684438-33.965579-84.912925-4.245697-4.245697-4.245697-4.245697-8.491395-4.245697 12.737092-4.245697 25.474185-8.491395 33.965579-16.98279 16.98279-12.737092 25.474185-33.965579 29.719882-55.193043l0 0 0 0 0-42.456974 0-21.228487-21.228487 0L329.759399 233.888144zM92.003414 709.401138l237.755985 0 0-50.947346L117.476575 658.453792l0-539.196409 212.281801 0 0-50.947346L92.003414 68.310038c-12.737092 0-25.474185 12.737092-25.474185 25.474185L66.529229 683.927977C66.529229 700.910767 79.266321 709.401138 92.003414 709.401138L92.003414 709.401138zM329.759399 577.786565 329.759399 577.786565 329.759399 577.786565c-33.965579 0-63.684438-12.737092-84.912925-33.965579-25.474185-21.228487-38.210253-50.947346-38.210253-84.912925l0 0 0 0 0 0 0 0c0-33.965579 12.737092-63.684438 38.210253-84.912925 0 0 0-4.245697 4.245697-4.245697-12.737092-4.245697-21.228487-8.491395-33.965579-16.98279l4.245697 0c-21.228487-12.737092-29.719882-33.965579-29.719882-55.193043l0 0 0 0 0-42.456974 0-21.228487 21.228487 0 118.877481 0 0 42.455951L227.863684 276.344095l0 21.228487 0 0 0 0c0 8.491395 8.491395 16.98279 12.737092 21.228487l0 0c12.737092 8.491395 25.474185 12.737092 38.210253 12.737092l0 0 0 0 50.947346 0 0 46.701648 0 0 0 0c-25.474185 0-42.455951 8.491395-55.193043 25.474185-16.98279 12.737092-25.474185 33.965579-25.474185 55.193043l0 0 0 0 0 0 0 0c0 21.228487 8.491395 42.455951 25.474185 55.193043 12.737092 12.737092 29.719882 21.228487 55.193043 21.228487l0 0 0 0L329.758376 577.786565z"  horiz-adv-x="1024" />

    
    <glyph glyph-name="zhengshu-copy" unicode="&#58944;" d="M937.154-88.333c-1.485 0-2.955 0.46-4.192 1.379l-128.85 94.949-129.726-94.786c-1.238-0.897-2.7-1.359-4.171-1.359-1.089 0-2.191 0.254-3.203 0.764-2.368 1.209-3.868 3.642-3.868 6.305v191.509c0 2.271 1.089 4.405 2.928 5.733 1.223 0.885 2.673 1.337 4.143 1.337 0.743 0 1.498-0.121 2.22-0.361l45.813-15.172c2.977-0.855 5.21-3.579 5.21-6.794v-71.362l76.624 55.959c1.244 0.906 2.708 1.359 4.171 1.359 1.471 0 2.948-0.46 4.192-1.379l75.436-55.583v71.010c0 3.019 1.917 5.698 4.765 6.681l46.188 15.964c0.75 0.26 1.534 0.389 2.305 0.389 1.451 0 2.884-0.447 4.1-1.314 1.867-1.329 2.969-3.472 2.969-5.755v-192.395c0-2.665-1.498-5.113-3.881-6.314-0.996-0.51-2.085-0.764-3.173-0.764zM134.749-55.301c-60.178 0-109.137 48.959-109.137 109.147v694.208c0 60.188 48.959 109.153 109.137 109.153h605.566c60.199 0 109.173-48.966 109.173-109.153v-216.558c0-3.902-3.162-7.069-7.069-7.069h-44.993c-3.909 0-7.069 3.168-7.069 7.069v216.553c0 27.586-22.447 50.034-50.026 50.034h-605.573c-27.586 0-50.034-22.447-50.034-50.034v-694.194c0-27.58 22.447-50.026 50.034-50.026h470.241c3.909 0 7.069-3.162 7.069-7.069v-44.987c0-3.909-3.162-7.069-7.069-7.069h-470.247zM803.66 95.322c-112.142 0-203.386 91.229-203.386 203.373s91.238 203.38 203.386 203.38c112.151 0 203.401-91.238 203.401-203.38-0.005-112.142-91.252-203.373-203.401-203.373zM803.66 441.741c-78.879 0-143.053-64.173-143.053-143.046 0-78.879 64.173-143.053 143.053-143.053s143.053 64.173 143.053 143.053c0 78.873-64.173 143.046-143.053 143.046zM193.537 135.133c-3.902 0-7.069 3.162-7.069 7.069v49.213c0 3.909 3.168 7.069 7.069 7.069h356.111c3.909 0 7.069-3.162 7.069-7.069v-49.213c0-3.909-3.162-7.069-7.069-7.069h-356.111zM803.691 210.787c-48.471 0-87.913 39.436-87.913 87.907s39.436 87.907 87.913 87.907c48.465 0 87.907-39.436 87.907-87.907s-39.442-87.907-87.907-87.907zM803.691 349.372c-27.94 0-50.669-22.737-50.669-50.677s22.731-50.677 50.669-50.677c27.934 0 50.663 22.737 50.663 50.677s-22.731 50.677-50.663 50.677zM193.537 291.646c-3.902 0-7.069 3.162-7.069 7.069v49.213c0 3.909 3.168 7.069 7.069 7.069h356.111c3.909 0 7.069-3.162 7.069-7.069v-49.213c0-3.909-3.162-7.069-7.069-7.069h-356.111zM193.537 446.901c-3.902 0-7.069 3.168-7.069 7.069v49.213c0 3.902 3.168 7.069 7.069 7.069h356.111c3.909 0 7.069-3.168 7.069-7.069v-49.213c0-3.902-3.162-7.069-7.069-7.069h-356.111zM193.537 603.422c-3.902 0-7.069 3.168-7.069 7.069v49.206c0 3.902 3.168 7.069 7.069 7.069h488.028c3.909 0 7.069-3.168 7.069-7.069v-49.206c0-3.902-3.162-7.069-7.069-7.069h-488.028z"  horiz-adv-x="1024" />

    
    <glyph glyph-name="14" unicode="&#59048;" d="M618.326 475.057v67.36c-0.252 18.521-6.88 112.288-112.482 112.288-105.598 0-112.227-93.766-112.478-112.58v-67.068h224.96zM528.338 301.611v0c13.403 7.782 22.513 22.119 22.491 38.684 0 24.825-20.156 44.927-44.985 44.927-24.825 0-44.981-20.102-44.981-44.927 0-16.565 9.11-30.901 22.491-38.684v-73.603h44.984v73.603zM512-64c-247.424 0-448 200.576-448 448s200.576 448 448 448c247.424 0 448-200.576 448-448s-200.576-448-448-448zM663.307 475.038v67.38c0 0-0.019 157.195-157.463 157.195-157.44 0-157.459-157.195-157.459-157.195v-67.38h-67.498v-314.413h449.918v314.413h-67.498z"  horiz-adv-x="1024" />

    
    <glyph glyph-name="pinglun" unicode="&#58935;" d="M256 448c0-35.346 28.654-64 64-64s64 28.654 64 64c0 35.346-28.654 64-64 64-35.346 0-64-28.654-64-64zM448 448c0-35.346 28.654-64 64-64s64 28.654 64 64c0 35.346-28.654 64-64 64-35.346 0-64-28.654-64-64zM640 448c0-35.346 28.654-64 64-64s64 28.654 64 64c0 35.346-28.654 64-64 64-35.346 0-64-28.654-64-64zM512 768c211.2 0 448-153.6 448-352 0-96-57.6-185.6-160-243.2-57.6-32-64-102.4-64-153.6 0-6.4 0-12.8 0-19.2-32 6.4-76.8 32-102.4 51.2-44.8 25.6-83.2 44.8-115.2 44.8-249.6 0-448 140.8-448 320-6.4 198.4 230.4 352 441.6 352M512 832c-281.6 0-512-204.8-512-416s230.4-384 512-384c38.4 0 160-96 243.2-96 6.4 0 12.8 0 12.8 0 51.2 12.8 6.4 147.2 64 179.2 115.2 70.4 192 179.2 192 300.8 0 211.2-230.4 416-512 416v0z"  horiz-adv-x="1024" />

    
    <glyph glyph-name="ai207" unicode="&#59075;" d="M425.640718 532.754292l0 170.978945-299.323927-299.251272 299.323927-299.378162 0 175.361761c213.758218 0 363.447299-68.396695 470.302872-218.076566C853.226739 276.200428 724.955435 489.912597 425.640718 532.754292"  horiz-adv-x="1024" />

    
    <glyph glyph-name="xin" unicode="&#58931;" d="M887.260709 663.150768c-96.93575 96.936773-254.116605 96.936773-351.037005 0l-24.7548-24.761963-24.769127 24.761963c-96.93575 96.936773-254.102279 96.936773-351.022679 0-96.950076-96.92654-96.950076-254.084882 0-351.020632l24.755824-24.7548 351.035982-298.873971 351.021655 298.873971 24.77015 24.755824C984.182133 409.065885 984.182133 566.224228 887.260709 663.150768L887.260709 663.150768z"  horiz-adv-x="1024" />

    
    <glyph glyph-name="chengyuan" unicode="&#58908;" d="M957.887256 53.073009c-16.256242 122.79879-86.213547 226.983641-181.684946 278.048667 41.8522 33.18275 67.512626 82.9799 67.512626 136.539746 0 84.317361-62.916958 157.642366-149.566434 174.319188-16.356526 3.120061-31.837102-7.463995-34.957163-23.644513-3.148713-16.210193 7.463995-31.837102 23.644513-34.957163 58.631352-11.31265 101.169167-59.972906 101.169167-115.717512 0-48.710398-32.993438-92.927459-82.163301-110.266359-12.852726-0.63752-24.276916-9.457396-27.547403-22.564925-3.965312-16.006556 5.743818-32.216749 21.750373-36.210713 95.048773-23.708981 170.956603-109.930715 196.504466-219.597417L127.165238 79.022007c12.916171 118.895901 101.81078 219.393779 220.880643 244.816798 14.004969 2.988054 23.603581 15.349593 23.611767 29.112038 0.185218 12.319583-7.305383 23.957645-19.530822 28.470425-62.217017 22.915919-103.996562 82.684164-103.996562 148.721183 0 87.582731 71.255881 158.838611 158.867264 158.838611 87.582731 0 158.838611-71.255881 158.838611-158.838611 0-65.669652-41.320081-125.133975-102.935394-148.329257-2.216481-0.734734-4.336772-1.730411-6.318916-2.956332-0.088004-0.054235-0.177032-0.107447-0.265036-0.162706-0.23843-0.151449-0.473791-0.305969-0.708128-0.463558-0.228197-0.151449-0.454348-0.304945-0.676405-0.462534-0.089028-0.063445-0.176009-0.127913-0.264013-0.192382-3.535523-2.560312-6.40692-5.827729-8.487302-9.528004-0.004093-0.00614-0.007163-0.013303-0.011256-0.019443-0.23536-0.419556-0.460488-0.844228-0.675382-1.274016-0.008186-0.017396-0.017396-0.034792-0.025583-0.052189-0.214894-0.431835-0.418532-0.867764-0.611937-1.308809-0.002047-0.005117-0.004093-0.010233-0.00614-0.01535-2.351558-5.370311-3.133364-11.432377-2.00568-17.452487 0.013303-0.070608 0.023536-0.141216 0.037862-0.210801 0.066515-0.341784 0.143263-0.682545 0.223081-1.02433 0.034792-0.153496 0.067538-0.306992 0.105401-0.459464 0.070608-0.282433 0.149403-0.564865 0.228197-0.847298 0.056282-0.201591 0.110517-0.404206 0.171915-0.604774 0.077771-0.258896 0.163729-0.517793 0.249687-0.776689 0.069585-0.209778 0.138146-0.419556 0.212848-0.627287 0.034792-0.097214 0.063445-0.195451 0.099261-0.292666 0.061398-0.165776 0.130983-0.325411 0.195451-0.490164 0.078795-0.202615 0.157589-0.404206 0.240477-0.603751 0.107447-0.260943 0.220011-0.518816 0.334621-0.774643 0.081864-0.183172 0.164752-0.366344 0.25071-0.548492 0.12996-0.276293 0.264013-0.549515 0.402159-0.820692 0.075725-0.148379 0.152473-0.295735 0.230244-0.443092 0.157589-0.297782 0.319272-0.591471 0.48607-0.88209 0.065492-0.113587 0.130983-0.225127 0.197498-0.337691 0.186242-0.314155 0.375553-0.62524 0.572028-0.930185 0.055259-0.086981 0.112564-0.172939 0.168846-0.258896 0.210801-0.320295 0.424672-0.636496 0.64673-0.947582 0.054235-0.075725 0.109494-0.150426 0.164752-0.226151 0.226151-0.310062 0.455371-0.617054 0.691755-0.916882 0.066515-0.084934 0.135076-0.167822 0.203638-0.251733 0.227174-0.282433 0.457418-0.560772 0.693802-0.832971 0.096191-0.11154 0.196475-0.220011 0.294712-0.330528 0.210801-0.23536 0.421602-0.468674 0.639566-0.696872 0.148379-0.155543 0.300852-0.306992 0.452301-0.460488 0.171915-0.172939 0.343831-0.345877 0.51984-0.514723 0.217964-0.208754 0.441045-0.410346 0.665149-0.61296 0.11461-0.103354 0.229221-0.208754 0.345877-0.310062 0.294712-0.257873 0.597611-0.508583 0.903579-0.7552 0.050142-0.039909 0.098237-0.081864 0.148379-0.12075 2.554172-2.033309 5.473665-3.665483 8.682753-4.78805 0.013303-0.005117 0.026606-0.00921 0.040932-0.014326 0.416486-0.145309 0.838088-0.281409 1.264806-0.409322 0.061398-0.01842 0.121773-0.035816 0.183172-0.053212 0.388856-0.113587 0.779759-0.221034 1.175779-0.319272 0.093121-0.023536 0.186242-0.045025 0.279363-0.066515 0.24457-0.058328 0.487094-0.122797 0.734734-0.176009 98.720396-21.020756 178.955788-93.909833 209.422683-190.150758 4.02364-12.71151 15.773242-20.845771 28.455075-20.845771 2.973728 0 6.005784 0.436952 9.009188 1.399883 15.714913 4.956895 24.432459 21.750373 19.446911 37.464263-29.79049 94.170776-98.91687 169.872922-187.413414 208.990848 49.929156 40.782845 80.646761 102.631472 80.646761 169.095209 0 120.499421-98.049107 218.548528-218.548528 218.548528-120.528074 0-218.577181-98.049107-218.577181-218.548528 0-66.645886 30.864962-128.625496 81.020268-169.398108C148.303674 307.087283 65.8518 185.243237 65.8518 49.166025c0-16.501836 13.353123-29.854958 29.854958-29.854958l810.780851 0c3.854794 0 7.534604 0.73678 10.915607 2.064009 3.39226-1.334391 7.062859-2.064009 10.863419-2.064009 1.283226 0 2.623757 0.088004 3.935636 0.261966C948.557774 21.731186 960.045409 36.745135 957.887256 53.073009z"  horiz-adv-x="1024" />

    
    <glyph glyph-name="test" unicode="&#58886;" d="M716.8 896 307.2 896C138.24 896 0 757.76 0 588.8l0-69.12 0 0c0 0 0 0 0 0 0-15.36 10.24-25.6 25.6-25.6 15.36 0 25.6 10.24 25.6 25.6 0 0 0 0 0 0l0 0L51.2 588.8C51.2 729.6 166.4 844.8 307.2 844.8L716.8 844.8c140.8 0 256-115.2 256-256L972.8 179.2c0-140.8-115.2-256-256-256L307.2-76.8C166.4-76.8 51.2 38.4 51.2 179.2l0 128 166.4 0c10.24 0 17.92 5.12 23.04 15.36l38.4 81.92 120.32-284.16c5.12-10.24 12.8-15.36 23.04-15.36 0 0 0 0 0 0 10.24 0 20.48 7.68 23.04 17.92l145.92 427.52 69.12-225.28c2.56-10.24 12.8-17.92 25.6-17.92l230.4 0c15.36 0 25.6 10.24 25.6 25.6s-10.24 25.6-25.6 25.6l-209.92 0-87.04 281.6c-2.56 10.24-12.8 17.92-23.04 17.92 0 0 0 0 0 0-10.24 0-20.48-7.68-23.04-17.92L419.84 204.8l-117.76 276.48c-5.12 10.24-12.8 15.36-23.04 15.36-10.24 0-20.48-5.12-23.04-15.36l-53.76-120.32-199.68 0 0-179.2c0-171.52 138.24-307.2 307.2-307.2L716.8-125.44c171.52 0 307.2 138.24 307.2 307.2L1024 588.8C1024 757.76 885.76 896 716.8 896z"  horiz-adv-x="1024" />

    
    <glyph glyph-name="webicon06" unicode="&#58992;" d="M864 512 512 720 160 512l352-208L864 512zM512 678.4l281.6-166.4L512 345.6 230.4 512 512 678.4zM510.016 201.6 233.536 352 157.088 352 510.016 160 862.912 352 786.464 352ZM510.016 73.6 233.536 224 157.088 224 510.016 32 862.912 224 786.464 224Z"  horiz-adv-x="1024" />

    
    <glyph glyph-name="iconremove" unicode="&#58898;" d="M959.495894 646.909875l0-37.077453L922.422534 609.832422c-0.090051 0-0.164752-0.052189-0.246617-0.052189L660.727323 609.780233 361.929076 609.780233 100.481506 609.780233c-0.090051 0-0.156566 0.052189-0.246617 0.052189l-37.125549 0 0 74.528414 0.022513 0 0 37.211507c0 20.577664 16.717753 37.263695 37.349653 37.263695l821.694411 0c20.624736 0 37.349653-16.687054 37.349653-37.263695l0-74.528414C959.52557 646.99174 959.495894 646.954901 959.495894 646.909875zM361.91475 833.402313 660.711973 833.402313l0-74.535577L361.91475 758.866736 361.91475 833.402313zM287.22977 311.673741l0-223.585241 149.398612 0L436.628382 535.251819l149.398612 0 0-447.162296 149.398612 0L735.425605 311.673741 735.425605 535.251819 884.826264 535.251819l0-149.049664 0-74.528414 0-223.585241c0-82.32396-66.886363-149.056827-149.398612-149.056827L287.22977-60.968327c-82.505086 0-149.398612 66.732867-149.398612 149.056827L137.831158 311.673741l0 74.528414L137.831158 535.251819l149.398612 0L287.22977 311.673741z"  horiz-adv-x="1024" />

    
    <glyph glyph-name="fanhuidingbu" unicode="&#58972;" d="M30.332842 895.653099l963.333292 0 0-74.102718-963.333292 0 0 74.102718ZM564.392254 733.46316 512 785.856437 459.606723 733.46316 459.606723 733.46316 119.017674 392.874111 171.409928 340.480834 474.948129 644.019035 474.948129-127.653099 549.050848-127.653099 549.050848 644.019035 852.589049 340.480834 904.982326 392.874111 564.392254 733.46316Z"  horiz-adv-x="1024" />

    
    <glyph glyph-name="tupian" unicode="&#58888;" d="M942.611503 704.147134C942.611503 704.147134 1069.678135 705.409908 1069.678135 579.606043 1069.678135 579.606043 1081.43772 457.82727 942.611503 455.143876 942.611503 455.143876 818.228256 452.460481 819.491029 579.606043 819.491029 579.684966 818.149329 692.38755 942.611503 704.147134L942.611503 704.147134ZM1192.877529 895.457402C1192.877529 895.457402 1259.725635 890.248459 1259.725635 831.292695L1259.725635-47.755886C1259.725635-47.755886 1255.779462-110.65782 1192.877529-111.99952L1192.877529 895.457402 1192.877529 895.457402ZM0.58206-47.834813C0.58206-47.834813 3.265455-112.078438 64.82569-112.078438L1192.877529-112.078438 1192.877529 73.943962 1069.914908 73.943962 819.491029 328.156161 630.785234 138.266513 374.047485 455.222799 121.176982 76.548435 64.904613 75.285662 63.483992 831.213772 0.58206 831.213772 0.58206-47.834813 0.58206-47.834813ZM1192.877529 895.457402 64.82569 895.457402C64.82569 895.457402 0.58206 896.799099 0.58206 831.292695L1192.877529 831.292695 1192.877529 895.457402 1192.877529 895.457402Z"  horiz-adv-x="1261" />

    
    <glyph glyph-name="dibiao2" unicode="&#58945;" d="M512-36.352c0 0-332.864 398.656-332.864 582.528C179.2 729.984 328.128 878.976 512 878.976c183.872 0 332.864-149.056 332.864-332.864C844.864 362.304 512-36.352 512-36.352L512-36.352zM512 837.376c-160.832 0-291.264-130.432-291.264-291.264S512 25.984 512 25.984s291.2 359.296 291.2 520.128S672.896 837.376 512 837.376L512 837.376zM512 358.848c-103.424 0-187.264 83.84-187.264 187.264 0 103.424 83.84 187.2 187.264 187.2 103.36 0 187.136-83.84 187.136-187.2C699.2 442.688 615.36 358.848 512 358.848L512 358.848zM512 691.776c-80.448 0-145.664-65.216-145.664-145.6S431.616 400.512 512 400.512c80.448 0 145.6 65.216 145.6 145.6S592.512 691.776 512 691.776L512 691.776zM364.928 96.96c9.088-12.48 18.048-24.512 26.56-35.968-88.768-10.176-149.888-31.36-149.888-55.744 0-34.56 121.088-62.464 270.464-62.464 149.312 0 270.4 27.904 270.4 62.464 0 24.384-61.056 45.568-149.952 55.744 8.64 11.456 17.472 23.424 26.624 35.968 98.176-17.536 164.928-52.032 164.928-91.712 0-57.472-139.712-104.064-312-104.064s-312.064 46.592-312.064 104.064C199.936 44.928 266.752 79.36 364.928 96.96L364.928 96.96z"  horiz-adv-x="1024" />

    
    <glyph glyph-name="guanlizhengshu" unicode="&#58889;" d="M64 832H384v-204.8l96 76.8 96-76.8v204.8H896v-384h64V896H0v-960h448V0h-384V832z m128-288H768v-64H192v64z m0-192H768v-64H192v64z m0-192H512v-64H192v64z m592.32256-287.93856c-8.704 7.552-17.28 15.744-26.368 22.784-47.23712 36.80256-94.65856 73.15456-141.824 110.08-5.57056 4.224-13.95712 6.59456-14.40256 17.60256-0.57856 16.06144-0.06656 32.95744 13.88544 40.704 8.38656 4.48 23.61856 4.48 31.04256-0.896 39.10656-28.22656 76.8-58.81856 115.072-88.77056 9.40544-7.35744 18.88256-14.90944 29.184-22.97344a4946.01728 4946.01728 0 0 1 36.15744 53.43744 55234.41152 55234.41152 0 0 1 117.44256 174.27456c9.088 13.696 18.56 27.392 27.776 41.088 7.552 11.776 27.70944 14.72 38.33344 6.016 4.41856-3.712 8.89856-7.49056 13.37856-11.07456v-30.976c-69.69344-103.68-139.19744-207.616-208.95744-311.296h-30.72z"  horiz-adv-x="1024" />

    
    <glyph glyph-name="down" unicode="&#58901;" d="M511.872 219.2c-0.003-0-0.006-0-0.009-0-9.137 0-17.379 3.829-23.21 9.97l-251.277 265.614c-5.415 5.721-8.744 13.464-8.744 21.984 0 17.678 14.33 32.008 32.008 32.008 9.157 0 17.416-3.845 23.25-10.009l228.046-241.103 228.224 241.088c5.855 6.165 14.113 10.001 23.266 10.001 8.516 0 16.256-3.32 21.998-8.736 12.784-12.145 13.36-32.433 1.264-45.233l-251.52-265.6c-5.844-6.155-14.086-9.984-23.223-9.984-0.026 0-0.051 0-0.077 0z"  horiz-adv-x="1024" />

    
    <glyph glyph-name="xitongshezhi" unicode="&#58885;" d="M896 477.866667h-81.066667c-12.8 0-21.333333 8.533333-29.866666 17.066666s-4.266667 25.6 8.533333 34.133334l55.466667 55.466666c8.533333 8.533333 12.8 21.333333 12.8 29.866667 0 12.8-4.266667 21.333333-12.8 29.866667l-72.533334 72.533333c-17.066667 17.066667-46.933333 17.066667-64 0l-55.466666-55.466667c-8.533333-8.533333-17.066667-8.533333-21.333334-8.533333-8.533333 0-17.066667 4.266667-21.333333 8.533333-4.266667 4.266667-8.533333 12.8-8.533333 21.333334V768c0 25.6-21.333333 42.666667-42.666667 42.666667h-102.4c-25.6 0-42.666667-21.333333-42.666667-42.666667v-81.066667c0-21.333333-17.066667-29.866667-29.866666-29.866666-4.266667 0-12.8 0-21.333334 8.533333l-55.466666 55.466667c-17.066667 17.066667-46.933333 17.066667-64 0l-72.533334-72.533334c-8.533333-8.533333-12.8-21.333333-12.8-29.866666 0-12.8 4.266667-21.333333 12.8-29.866667l55.466667-55.466667c8.533333-8.533333 12.8-21.333333 8.533333-34.133333s-17.066667-17.066667-29.866666-17.066667H128c-25.6 0-42.666667-21.333333-42.666667-42.666666v-102.4c0-25.6 21.333333-42.666667 42.666667-42.666667h81.066667c12.8 0 21.333333-8.533333 29.866666-17.066667 4.266667-12.8 4.266667-25.6-8.533333-34.133333l-55.466667-55.466667c-8.533333-8.533333-12.8-21.333333-12.8-29.866666 0-12.8 4.266667-21.333333 12.8-29.866667l72.533334-72.533333c17.066667-17.066667 46.933333-17.066667 64 0l55.466666 55.466666c8.533333 8.533333 17.066667 8.533333 21.333334 8.533334 17.066667 0 29.866667-12.8 29.866666-29.866667V0c0-25.6 21.333333-42.666667 42.666667-42.666667h102.4c25.6 0 42.666667 21.333333 42.666667 42.666667v81.066667c0 21.333333 17.066667 29.866667 29.866666 29.866666 4.266667 0 12.8 0 21.333334-8.533333l55.466666-55.466667c17.066667-17.066667 46.933333-17.066667 64 0l72.533334 72.533334c8.533333 8.533333 12.8 21.333333 12.8 29.866666 0 12.8-4.266667 21.333333-12.8 29.866667l-55.466667 55.466667c-8.533333 8.533333-12.8 21.333333-8.533333 34.133333 4.266667 12.8 17.066667 17.066667 29.866666 17.066667H896c25.6 0 42.666667 21.333333 42.666667 42.666666v102.4c0 29.866667-21.333333 46.933333-42.666667 46.933334zM622.933333 384c0-59.733333-51.2-110.933333-110.933333-110.933333s-110.933333 51.2-110.933333 110.933333 51.2 110.933333 110.933333 110.933333 110.933333-51.2 110.933333-110.933333z"  horiz-adv-x="1024" />

    
    <glyph glyph-name="tongguo" unicode="&#58895;" d="M513 371.348m-429.522 0a429.522 429.522 0 1 1 859.044 0 429.522 429.522 0 1 1-859.044 0ZM794.07 487.637L464.187 157.754c-7.791-7.791-18.555-12.611-30.443-12.611-11.887 0-22.651 4.82-30.442 12.611L216.874 344.222a42.753 42.753 0 0 0-12.61 30.402c0 23.774 19.278 43.012 43.013 43.012 11.887 0 22.649-4.82 30.442-12.61l156.025-155.985 299.481 299.481c7.791 7.75 18.555 12.57 30.442 12.57 23.736 0 43.013-19.278 43.013-43.013 0.001-11.887-4.819-22.649-12.61-30.442z"  horiz-adv-x="1024" />

    
    <glyph glyph-name="test1" unicode="&#59003;" d="M283.234 580.085h54.468v-54.468h-54.468zM283.234 427.574h54.468v-54.468h-54.468zM283.234 275.064h54.468v-54.468h-54.468zM283.234 122.553h54.468v-54.468h-54.468zM664.511 95.319c0 9.025 7.316 16.34 16.34 16.34l190.638 0v751.66h-718.979v-958.638h512v190.638zM757.106 231.489h-337.702c-9.024 0-16.34 7.314-16.34 16.34s7.316 16.34 16.34 16.34h337.702c9.024 0 16.34-7.314 16.34-16.34s-7.316-16.34-16.34-16.34zM757.106 384h-337.702c-9.024 0-16.34 7.314-16.34 16.34s7.316 16.34 16.34 16.34h337.702c9.024 0 16.34-7.314 16.34-16.34s-7.316-16.34-16.34-16.34zM443.834 721.702h313.272c9.024 0 16.34-7.314 16.34-16.34s-7.316-16.34-16.34-16.34h-313.272c-9.024 0-16.34 7.314-16.34 16.34s7.316 16.34 16.34 16.34zM757.106 569.191c9.024 0 16.34-7.314 16.34-16.34s-7.316-16.34-16.34-16.34h-337.702c-9.024 0-16.34 7.314-16.34 16.34s7.316 16.34 16.34 16.34h337.702zM266.233 706.024c2.957 2.956 7.042 4.784 11.554 4.784s8.597-1.828 11.554-4.784l21.127-21.127 75.595 75.595c2.936 2.841 6.943 4.592 11.358 4.592 9.026 0 16.343-7.317 16.343-16.343 0-4.416-1.752-8.423-4.598-11.364l-87.145-87.144c-3.19-3.19-7.373-4.784-11.554-4.784s-8.364 1.595-11.554 4.784l-32.681 32.681c-2.957 2.957-4.786 7.042-4.786 11.555s1.829 8.598 4.786 11.555zM370.383 51.745c0-9.025-7.316-16.34-16.34-16.34h-87.149c-9.025 0-16.34 7.316-16.34 16.34v87.149c0 0 0 0 0 0 0 9.025 7.316 16.34 16.34 16.34h87.149c0 0 0 0 0 0 9.025 0 16.34-7.316 16.34-16.34 0-0 0-0 0-0v-87.149zM370.383 204.255c0-9.025-7.316-16.34-16.34-16.34l-87.149-0c-9.025 0-16.34 7.316-16.34 16.34v87.149c0 0 0 0 0 0 0 9.025 7.316 16.34 16.34 16.34h87.149c0 0 0 0 0 0 9.025 0 16.34-7.316 16.34-16.34 0-0 0-0 0-0v-87.149zM370.383 356.766c0-9.025-7.316-16.34-16.34-16.34h-87.149c-9.025 0-16.34 7.316-16.34 16.34v87.149c0 0 0 0 0 0 0 9.025 7.316 16.34 16.34 16.34h87.149c0 0 0 0 0 0 9.025 0 16.34-7.316 16.34-16.34 0-0 0-0 0-0v-87.149zM370.383 509.277c0-9.025-7.316-16.34-16.34-16.34h-87.149c-9.025 0-16.34 7.316-16.34 16.34v87.149c0 9.025 7.316 16.34 16.34 16.34h87.149c9.025 0 16.34-7.316 16.34-16.34v-87.149zM615.489 78.979h-196.085c-9.024 0-16.34 7.314-16.34 16.34s7.316 16.34 16.34 16.34h196.085c9.024 0 16.34-7.314 16.34-16.34s-7.316-16.34-16.34-16.34zM697.191 78.979v-151.19l151.19 151.19zM900.693 85.264c0.248 0.318 0.495 0.636 0.719 0.972 0.061 0.089 0.109 0.185 0.168 0.277 0.231 0.357 0.455 0.721 0.656 1.098 0.037 0.065 0.063 0.137 0.098 0.205 0.913 1.712 1.563 3.708 1.833 5.823-1.227-4.535-1.214-4.485-1.194-4.439 0.179 0.444 0.346 0.895 0.486 1.357 0.017 0.054 0.026 0.113 0.044 0.168 0.133 0.453 0.253 0.911 0.346 1.377 0.026 0.133 0.037 0.266 0.061 0.399 0.068 0.394 0.137 0.784 0.176 1.187 0.054 0.54 0.083 1.085 0.083 1.632v784.34c0 9.025-7.316 16.34-16.34 16.34h-751.66c-9.024-0.001-16.338-7.317-16.338-16.34 0-0 0-0 0-0v-991.319c0-9.025 7.316-16.34 16.34-16.34h544.681c0.547 0 1.092 0.028 1.632 0.083 0.405 0.041 0.802 0.109 1.196 0.179 0.129 0.022 0.259 0.033 0.388 0.057 0.466 0.094 0.922 0.216 1.373 0.344 0.057 0.017 0.118 0.028 0.174 0.046 0.453 0.137 0.893 0.301 1.327 0.475 0.059 0.024 0.118 0.041 0.176 0.063 0.412 0.172 0.808 0.366 1.203 0.569 0.081 0.044 0.166 0.076 0.244 0.12 1.863 1.031 3.433 2.355 4.706 3.93-3.552-3.237-3.438-3.176-3.332-3.104 0.318 0.214 0.621 0.447 0.922 0.682 0.12 0.094 0.246 0.176 0.364 0.272 1.873 1.561 3.387 3.485 4.445 5.671-3.347-4.673-3.302-4.642-3.262-4.601l207.070 207.079c0.342 0.349 0.671 0.706 0.983 1.085 0.081 0.102 0.153 0.214 0.233 0.316zM152.511 863.319h718.979v-751.66h-190.638c-9.025-0-16.34-7.316-16.34-16.34v-190.638h-512v958.638zM697.191 78.979h151.19l-151.19-151.19v151.19zM443.834 689.021h313.272c9.024 0 16.34 7.314 16.34 16.34s-7.316 16.34-16.34 16.34h-313.272c-9.024 0-16.34-7.314-16.34-16.34s7.316-16.34 16.34-16.34zM298.914 650.231c3.19-3.19 7.373-4.784 11.554-4.784s8.364 1.595 11.554 4.784l87.149 87.149c2.927 2.952 4.736 7.017 4.736 11.504 0 9.025-7.316 16.34-16.34 16.34-4.487 0-8.551-1.808-11.504-4.736l-75.594-75.594-21.127 21.127c-2.936 2.841-6.943 4.592-11.358 4.592-9.026 0-16.343-7.317-16.343-16.343 0-4.416 1.752-8.423 4.598-11.364l32.677-32.676zM403.064 552.851c0-9.025 7.316-16.34 16.34-16.34h337.702c9.024 0 16.34 7.314 16.34 16.34s-7.316 16.34-16.34 16.34h-337.702c0 0 0 0 0 0-9.025 0-16.34-7.316-16.34-16.34 0-0 0-0 0-0zM354.043 612.766h-87.149c0 0 0 0 0 0-9.025 0-16.34-7.316-16.34-16.34v-87.149c0-9.025 7.316-16.34 16.34-16.34h87.149c9.025 0 16.34 7.316 16.34 16.34v87.149c0 9.025-7.316 16.34-16.34 16.34zM337.702 525.617h-54.468v54.468h54.468v-54.468zM757.106 416.681h-337.702c-9.024 0-16.34-7.314-16.34-16.34s7.316-16.34 16.34-16.34h337.702c9.024 0 16.34 7.314 16.34 16.34s-7.316 16.34-16.34 16.34zM354.043 460.255h-87.149c0 0 0 0 0 0-9.025 0-16.34-7.316-16.34-16.34 0-0 0-0 0-0l-0-87.149c0-9.025 7.316-16.34 16.34-16.34l87.149-0c9.025 0 16.34 7.316 16.34 16.34v87.149c0 0 0 0 0 0 0 9.025-7.316 16.34-16.34 16.34zM337.702 373.106h-54.468v54.468h54.468v-54.468zM757.106 264.17h-337.702c-9.024 0-16.34-7.314-16.34-16.34s7.316-16.34 16.34-16.34h337.702c9.024 0 16.34 7.314 16.34 16.34s-7.316 16.34-16.34 16.34zM354.043 307.745h-87.149c0 0 0 0 0 0-9.025 0-16.34-7.316-16.34-16.34 0-0 0-0 0-0l-0-87.149c0-9.025 7.316-16.34 16.34-16.34l87.149-0c9.025 0 16.34 7.316 16.34 16.34v87.149c0 0 0 0 0 0 0 9.025-7.316 16.34-16.34 16.34zM337.702 220.596h-54.468v54.468h54.468v-54.468zM615.489 111.66h-196.085c-9.024 0-16.34-7.314-16.34-16.34s7.316-16.34 16.34-16.34h196.085c9.024 0 16.34 7.314 16.34 16.34s-7.316 16.34-16.34 16.34zM354.043 155.234h-87.149c0 0 0 0 0 0-9.025 0-16.34-7.316-16.34-16.34 0-0 0-0 0-0l-0-87.149c0-9.025 7.316-16.34 16.34-16.34l87.149-0c9.025 0 16.34 7.316 16.34 16.34v87.149c0 0 0 0 0 0 0 9.025-7.316 16.34-16.34 16.34zM337.702 68.085h-54.468v54.468h54.468v-54.468z"  horiz-adv-x="1024" />

    
    <glyph glyph-name="yonghudianji" unicode="&#58936;" d="M613.475512-125.090975H410.530306c-192.501807 0-344.539079 0-344.539079 99.843549v19.973364c0 187.120111 154.57976 339.331924 344.539079 339.331924h202.939388c189.959319 0 344.544897-152.211813 344.544897-339.331924v-19.973364c-0.034908-99.843549-159.717097-99.843549-344.539079-99.843549zM501.838776 354.089407c-150.832936 0-273.483239 120.904889-273.483239 269.521147 0 148.610441 122.656121 269.480421 273.483239 269.480421s273.483239-120.86998 273.483239-269.480421c0-148.616259-122.685212-269.521147-273.483239-269.521147z"  horiz-adv-x="1024" />

    
    <glyph glyph-name="pingfenbiaozhun" unicode="&#58923;" d="M913.066667-5.688889h-79.644445c-59.733333 0-110.933333 48.355556-110.933333 110.933333V770.844444c0 59.733333 48.355556 110.933333 110.933333 110.933334h79.644445C972.8 881.777778 1024 833.422222 1024 770.844444v-668.444444c0-59.733333-48.355556-108.088889-110.933333-108.088889z m79.644444 776.533333c0 45.511111-31.288889 79.644444-79.644444 79.644445h-79.644445c-56.888889 0-79.644444-54.044444-79.644444-79.644445v-668.444444c0-42.666667 34.133333-79.644444 76.8-79.644444h82.488889c36.977778 0 79.644444 28.444444 79.644444 79.644444V770.844444zM864.711111 782.222222H816.355556l2.844444-96.711111c0-8.533333-5.688889-17.066667-14.222222-17.066667s-11.377778 8.533333-11.377778 17.066667V782.222222c0 31.288889 25.6 31.288889 34.133333 31.288889h36.977778c8.533333 0 17.066667-8.533333 14.222222-17.066667 0-8.533333-5.688889-14.222222-14.222222-14.222222z m-48.355555-130.844444c2.844444-2.844444 5.688889-5.688889 5.688888-11.377778 0-8.533333-5.688889-14.222222-14.222222-14.222222s-14.222222 5.688889-14.222222 14.222222c0 2.844444 2.844444 8.533333 5.688889 11.377778 2.844444 5.688889 11.377778 5.688889 17.066667 0z m-253.155556-657.066667H483.555556c-59.733333 0-110.933333 48.355556-110.933334 110.933333V600.177778c0 59.733333 48.355556 110.933333 110.933334 110.933333h79.644444c59.733333 0 110.933333-48.355556 110.933333-110.933333v-494.933334c0-62.577778-51.2-110.933333-110.933333-110.933333z m79.644444 605.866667c0 45.511111-31.288889 79.644444-79.644444 79.644444H483.555556c-56.888889 0-79.644444-54.044444-79.644445-79.644444v-494.933334c0-42.666667 34.133333-79.644444 76.8-79.644444h82.488889c36.977778 0 79.644444 28.444444 79.644444 79.644444V600.177778zM199.111111-5.688889H116.622222C56.888889-5.688889 5.688889 42.666667 5.688889 105.244444V423.822222c0 59.733333 48.355556 110.933333 110.933333 110.933334H199.111111c59.733333 0 110.933333-48.355556 110.933333-110.933334v-321.422222c-2.844444-59.733333-51.2-108.088889-110.933333-108.088889z m79.644445 429.511111c0 45.511111-31.288889 79.644444-79.644445 79.644445H116.622222c-56.888889 0-79.644444-54.044444-79.644444-79.644445v-321.422222c0-42.666667 34.133333-79.644444 76.8-79.644444h85.333333c36.977778 0 79.644444 28.444444 79.644445 79.644444V423.822222z m722.488888-506.311111c8.533333 0 14.222222-5.688889 14.222223-14.222222s-5.688889-14.222222-14.222223-14.222222H14.222222c-8.533333-2.844444-14.222222 2.844444-14.222222 11.377777s5.688889 14.222222 14.222222 14.222223l987.022222 2.844444z"  horiz-adv-x="1024" />

    
    <glyph glyph-name="laiyuan" unicode="&#58902;" d="M512 853.333333C251.733333 853.333333 42.666667 644.266667 42.666667 384s209.066667-469.333333 469.333333-469.333333 469.333333 209.066667 469.333333 469.333333S772.266667 853.333333 512 853.333333z m0-896C277.333333-42.666667 85.333333 149.333333 85.333333 384S277.333333 810.666667 512 810.666667s426.666667-192 426.666667-426.666667-192-426.666667-426.666667-426.666667zM716.8 616.533333l-283.733333-142.933333c-4.266667-2.133333-8.533333-6.4-8.533334-8.533333l-142.933333-283.733334c-4.266667-8.533333-2.133333-17.066667 4.266667-25.6 4.266667-4.266667 8.533333-6.4 14.933333-6.4 4.266667 0 6.4 0 8.533333 2.133334l283.733334 142.933333c4.266667 2.133333 8.533333 6.4 8.533333 8.533333l142.933333 283.733334c4.266667 8.533333 2.133333 17.066667-4.266666 25.6-6.4 6.4-17.066667 8.533333-23.466667 4.266666z m-270.933333-196.266666l100.266666-100.266667-200.533333-100.266667 100.266667 200.533334z m132.266666-72.533334L477.866667 448l200.533333 100.266667-100.266667-200.533334z"  horiz-adv-x="1024" />

    
    <glyph glyph-name="xinmima" unicode="&#58896;" d="M732.6 455.5H363.2c6.4 52-39.7 263.2 130.5 268.3 161.8 6 136.6-192.7 136.6-192.7l79.2-0.5s23 266-215.9 267.3c-260.7-13-199.6-301.3-207.5-342.4h6.8c-52 0-94.2-41-94.2-91.4v-304.8c0-50.5 42.2-91.4 94.2-91.4h439.7c52 0 94.2 41 94.2 91.4V364c0 50.5-42.2 91.5-94.2 91.5zM544.1 189.6v-69.4c0-16.8-14.1-30.5-31.4-30.5-17.3 0-31.4 13.7-31.4 30.5v69.4c-18.7 10.6-31.4 30-31.4 52.5 0 33.7 28.1 61 62.8 61 34.7 0 62.8-27.3 62.8-61 0-22.5-12.7-42-31.4-52.5z"  horiz-adv-x="1024" />

    
    <glyph glyph-name="shanchu" unicode="&#59063;" d="M512.006144 832.002048C264.568832 832.002048 64 631.42912 64 384.012288c0-247.433216 200.568832-448.014336 448.006144-448.014336 247.425024 0 447.993856 200.58112 447.993856 448.014336 0 247.416832-200.568832 447.98976-447.993856 447.98976z m0-855.303168c-224.958464 0-407.297024 182.35904-407.297024 407.313408 0 224.946176 182.33856 407.297024 407.297024 407.297024 224.950272 0 407.30112-182.350848 407.30112-407.297024 0-224.954368-182.350848-407.313408-407.30112-407.313408zM308.224 343.04h407.552v81.92H308.224v-81.92z"  horiz-adv-x="1024" />

    
    <glyph glyph-name="xiaoxi" unicode="&#58942;" d="M768 384a255.2 255.2 0 0 0-75-181l45.25-45.25a320 320 0 0 1 0 452.55L693 565a255.2 255.2 0 0 0 75-181zM896 384a382.8 382.8 0 0 0-112.47-271.53l45.25-45.25a448 448 0 0 1 0 633.57l-45.25-45.25A382.8 382.8 0 0 0 896 384zM715.651707 180.349879m-22.627417-22.627417a32 32 0 1 1 45.254834 45.254834 32 32 0 1 1-45.254834-45.254834ZM806.162728 89.849414m-22.627417-22.627417a32 32 0 1 1 45.254834 45.254834 32 32 0 1 1-45.254834-45.254834ZM715.64795 587.65495m-22.627417-22.627417a32 32 0 1 1 45.254834 45.254834 32 32 0 1 1-45.254834-45.254834ZM806.15795 678.16495m-22.627417-22.627417a32 32 0 1 1 45.254834 45.254834 32 32 0 1 1-45.254834-45.254834ZM544 770.46h-19.33a63.77 63.77 0 0 1-43.82-17.36L292.35 576H128a32 32 0 0 1-32-32v-320a32 32 0 0 1 32-32h164.35l188.5-177.1a63.77 63.77 0 0 1 43.82-17.36H544a64.07 64.07 0 0 1 64 64V706.46a64.07 64.07 0 0 1-64 64zM256 240h-96V512h96z m288-178.46h-19.33L320 253.84V514.16l204.67 192.3H544v-644.92z"  horiz-adv-x="1024" />

    
    <glyph glyph-name="daochu" unicode="&#58995;" d="M725.312 287.232V462.848c0 74.112-326.784-24.192-384-263.424 0 0-75.584-88-85.312 0 0 0 109.696 482.944 469.312 482.944V814.08s42.688 61.824 128-43.968L1024 594.56l-298.688-307.328zM128 462.848a43.392 43.392 0 0 1-42.688-43.968v-351.232c0-24.256 19.072-43.904 42.688-43.904h725.312a43.328 43.328 0 0 1 42.688 43.904v43.904c0 24.256 19.072 43.968 42.688 43.968 23.616 0 42.688-19.712 42.688-43.968v-87.808C981.312-24.768 943.104-64 896-64H85.312C38.208-64 0-24.768 0 23.744V462.848c0 48.512 38.208 87.808 85.312 87.808H128c23.552 0 42.688-19.648 42.688-43.904A43.328 43.328 0 0 0 128 462.848z"  horiz-adv-x="1024" />

    
    <glyph glyph-name="shenhetongguo" unicode="&#58917;" d="M97.878 412.147c0 117.062-0.108 160.999-0.108 278.062 0 101.472 56.328 108.082 110.483 108.082h441.933c85.128 0 111.453-28.968 111.453-110.481v-55.241c0-43.562-55.419-38.57-55.419 0V687.81c0 40.918-13.309 55.24-56.035 55.24H208.252c-45.746 0-55.241-6.203-55.241-55.24v-552.407c0-30.278 16.572-55.241 55.241-55.241 67.004 0 43.482-0.026 110.484 0 33.77 0 36.252-55.241 0-55.241s-63.711-0.44-131.306-0.17c-39.867 0.163-72.883 23.774-84.643 60.322-3.292 10.223-4.694 21.525-4.694 32.34-0.323 116.658-0.215 178.076-0.215 294.734M649.644-30.291000000000054c-152.344 0.027-275.666 123.537-275.666 276.122 0 152.586 123.915 276.259 276.529 276.042 152.616-0.215 275.884-124.022 275.722-276.878-0.16-152.236-123.807-275.314-276.585-275.286m0.756 496.868c-121.109 0.271-220.641-98.828-220.91-220.045-0.27-121.541 98.345-220.934 219.561-221.287 121.704-0.324 221.505 98.208 221.775 219.047 0.324 122.594-98.236 221.99-220.426 222.285M594.945 632.9390000000001c44.02-0.027 37.978-55.979 0-55.979h-331.45c-41.431 0-39.704 55.979 0 55.979 108.756 0.027 289.155 0.027 331.45 0zM318.736 467.218c44.021-0.028 37.979-55.98 0-55.98h-55.242c-41.431 0-39.704 55.98 0 55.98 108.757 0.027 12.948 0.027 55.242 0zM785.502 348.78c-12.496 12.498-32.758 12.498-45.254 0L602.151 210.68399999999997l-42.191 42.191c-12.498 12.496-32.758 12.496-45.256 0-12.496-12.497-12.496-32.759 0-45.256l64.818-64.818c6.249-6.248 14.438-9.372 22.628-9.372s16.379 3.124 22.628 9.372a32.424 32.424 0 0 1 2.402 2.695 32.304 32.304 0 0 1 2.689 2.397l155.633 155.633c12.497 12.496 12.497 32.758 0 45.254z"  horiz-adv-x="1024" />

    
    <glyph glyph-name="yulan" unicode="&#59006;" d="M617.544 158.229c0-40.627 33.152-73.561 74.048-73.561s74.048 32.934 74.048 73.561c0 40.627-33.152 73.561-74.048 73.561-40.896 0-74.048-32.934-74.048-73.561zM691.592 308.281c-89.97 0-236.958-102.989-236.958-147.122 0-44.136 146.987-147.122 236.958-147.122 89.972 0 236.958 102.986 236.958 147.122-0.001 44.134-146.987 147.122-236.958 147.122zM691.592 57.173c-57.254 0-103.668 46.109-103.668 102.986 0 56.876 46.414 102.986 103.668 102.986 57.257 0 103.669-46.109 103.669-102.986 0-56.878-46.413-102.986-103.669-102.986zM461.549 100.31h-299.629c-11.356 0-20.561 9.233-20.561 20.622v55.258l170.253 183.224 123.719-123.11 246.036 246.886 146.706-196.284c23.615-11.482 46.712-25.050 67.586-39.359v523.238c0 12.774-10.325 23.13-23.061 23.13h-751.418c-12.737 0-23.061-10.355-23.061-23.13v-690.713c0-12.774 10.325-23.13 23.061-23.13h391.82c-20.095 14.339-37.795 29.232-51.451 43.368zM141.36 729.924c0 11.389 9.205 20.622 20.561 20.622h669.938c11.356 0 20.561-9.233 20.561-20.622v-414.074l-171.824 228.82-245.264-246.765-124 123.202-169.972-182.988v491.805zM253.679 596.428c0-0 0-0 0-0 0-31.935 25.812-57.824 57.653-57.824 31.841 0 57.653 25.889 57.653 57.824 0 0 0 0 0 0 0-0 0 0 0 0 0 31.935-25.812 57.824-57.653 57.824-31.841 0-57.653-25.889-57.653-57.824 0-0 0-0 0-0z"  horiz-adv-x="1024" />

    
    <glyph glyph-name="jianshao" unicode="&#58943;" d="M512 830.914C265.156 830.914 65.086 630.824 65.086 384c0-246.806 200.07-446.913 446.912-446.913 246.824 0 446.912 200.107 446.912 446.913 0 246.824-200.088 446.913-446.912 446.913z m218.545-499.559H293.453V436.646h437.093v-105.291z"  horiz-adv-x="1024" />

    
    <glyph glyph-name="caidan" unicode="&#58982;" d="M233.184 632.84c-22.936 0-43.448-20.512-43.448-43.448s20.512-42.24 43.448-42.24c22.928 0 42.24 19.312 42.24 42.24s-19.312 43.448-42.24 43.448zM865.336 590c0-18.776-13.68-34-30.544-34H370.72c-16.864 0-30.536 15.224-30.536 34S353.856 624 370.72 624h464.072c16.864 0 30.544-15.224 30.544-34zM233.184 423.504c-22.936 0-43.448-20.512-43.448-43.448s20.512-42.24 43.448-42.24c22.928 0 42.24 19.312 42.24 42.24s-19.312 43.448-42.24 43.448zM865.336 380.664c0-18.776-13.68-34-30.544-34H370.72c-16.864 0-30.536 15.224-30.536 34 0 18.784 13.672 34 30.536 34h464.072c16.864 0 30.544-15.216 30.544-34zM233.184 214.168c-22.936 0-43.448-20.512-43.448-43.448s20.512-42.24 43.448-42.24c22.928 0 42.24 19.312 42.24 42.24s-19.312 43.448-42.24 43.448zM865.336 171.328c0-18.776-13.68-34-30.544-34H370.72c-16.864 0-30.536 15.224-30.536 34 0 18.784 13.672 34 30.536 34h464.072c16.864 0 30.544-15.216 30.544-34z"  horiz-adv-x="1024" />

    
    </font>
</defs>
</svg>
